<?xml version="1.0" encoding="UTF-8"?><svg id="Layer_1" xmlns="http://www.w3.org/2000/svg" xmlns:xlink="http://www.w3.org/1999/xlink" viewBox="0 0 669.57 430.79"><defs><style>.cls-1{fill:url(#Dégradé_sans_nom_10-42);}.cls-2{fill:url(#Dégradé_sans_nom_10-54);}.cls-3{fill:url(#Dégradé_sans_nom_10-47);}.cls-4{fill:url(#Dégradé_sans_nom_10-18);}.cls-5{fill:url(#Dégradé_sans_nom_10-56);}.cls-6{fill:url(#Dégradé_sans_nom_10-25);}.cls-7{fill:#fff;}.cls-8{fill:url(#Dégradé_sans_nom_10-20);}.cls-9{fill:url(#Dégradé_sans_nom_10-10);}.cls-10{fill:url(#Dégradé_sans_nom_10-6);}.cls-11{fill:url(#Dégradé_sans_nom_10-35);}.cls-12{fill:url(#Dégradé_sans_nom_10-4);}.cls-13{fill:url(#Dégradé_sans_nom_10-32);}.cls-14{fill:url(#Dégradé_sans_nom_10-31);}.cls-15{fill:url(#Dégradé_sans_nom_10-59);}.cls-16{fill:url(#Dégradé_sans_nom_10-23);}.cls-17{fill:url(#Dégradé_sans_nom_10-58);}.cls-18{fill:url(#Dégradé_sans_nom_10-24);}.cls-19{fill:url(#Dégradé_sans_nom_10-40);}.cls-20{fill:url(#Dégradé_sans_nom_10-53);}.cls-21{fill:url(#Dégradé_sans_nom_10-29);}.cls-22{fill:url(#Dégradé_sans_nom_10-16);}.cls-23{fill:url(#Dégradé_sans_nom_10-17);}.cls-24{fill:url(#Dégradé_sans_nom_10-33);}.cls-25{fill:url(#Dégradé_sans_nom_10-13);}.cls-26{fill:url(#Dégradé_sans_nom_10-37);}.cls-27{fill:url(#Dégradé_sans_nom_10-48);}.cls-28{fill:url(#Dégradé_sans_nom_10-62);}.cls-29{fill:url(#Dégradé_sans_nom_10-55);}.cls-30{fill:url(#Dégradé_sans_nom_10-22);}.cls-31{fill:url(#Dégradé_sans_nom_10-12);}.cls-32{fill:url(#Dégradé_sans_nom_10-49);}.cls-33{fill:url(#Dégradé_sans_nom_10-5);}.cls-34{fill:url(#Dégradé_sans_nom_10-11);}.cls-35{fill:url(#Dégradé_sans_nom_10-15);}.cls-36{fill:url(#Dégradé_sans_nom_10-30);}.cls-37{fill:url(#Dégradé_sans_nom_10-60);}.cls-38{fill:url(#Dégradé_sans_nom_10-52);}.cls-39{fill:url(#Dégradé_sans_nom_10-43);}.cls-40{fill:url(#Dégradé_sans_nom_10-14);}.cls-41{fill:url(#Dégradé_sans_nom_10-51);}.cls-42{fill:url(#Dégradé_sans_nom_10-61);}.cls-43{fill:url(#Dégradé_sans_nom_10-28);}.cls-44{fill:url(#Dégradé_sans_nom_10-45);}.cls-45{fill:url(#Dégradé_sans_nom_10-26);}.cls-46{fill:url(#Dégradé_sans_nom_10-65);}.cls-47{fill:url(#Dégradé_sans_nom_10-64);}.cls-48{fill:url(#Dégradé_sans_nom_10-9);}.cls-49{fill:url(#Dégradé_sans_nom_10-41);}.cls-50{fill:url(#Dégradé_sans_nom_10-34);}.cls-51{fill:url(#Dégradé_sans_nom_10-27);}.cls-52{fill:url(#Dégradé_sans_nom_10-2);}.cls-53{fill:url(#Dégradé_sans_nom_10-66);}.cls-54{fill:url(#Dégradé_sans_nom_10-3);}.cls-55{fill:url(#Dégradé_sans_nom_10-36);}.cls-56{fill:url(#Dégradé_sans_nom_10-7);}.cls-57{fill:url(#Dégradé_sans_nom_10-63);}.cls-58{fill:url(#Dégradé_sans_nom_10-46);}.cls-59{fill:url(#Dégradé_sans_nom_10-19);}.cls-60{fill:url(#Dégradé_sans_nom_10-8);}.cls-61{fill:url(#Dégradé_sans_nom_10-21);}.cls-62{fill:url(#Dégradé_sans_nom_10-50);}.cls-63{fill:url(#Dégradé_sans_nom_10-57);}.cls-64{fill:url(#Dégradé_sans_nom_10);}.cls-65{fill:url(#Dégradé_sans_nom_10-38);}.cls-66{fill:url(#Dégradé_sans_nom_10-39);}.cls-67{fill:url(#Dégradé_sans_nom_10-44);}</style><linearGradient id="Dégradé_sans_nom_10" x1="283.41" y1="9004.57" x2="452.02" y2="9408.03" gradientTransform="translate(0 -8993.63)" gradientUnits="userSpaceOnUse"><stop offset="0" stop-color="#a001c0"/><stop offset=".2" stop-color="#4041fe"/><stop offset=".4" stop-color="#007a41"/><stop offset=".41" stop-color="#15853c"/><stop offset=".47" stop-color="#67b027"/><stop offset=".51" stop-color="#a8d216"/><stop offset=".55" stop-color="#d7ea0a"/><stop offset=".58" stop-color="#f4f903"/><stop offset=".6" stop-color="#ff0"/><stop offset=".63" stop-color="#fff400"/><stop offset=".68" stop-color="#fed702"/><stop offset=".75" stop-color="#fca903"/><stop offset=".8" stop-color="#fb7f05"/><stop offset="1" stop-color="#f00001"/></linearGradient><linearGradient id="Dégradé_sans_nom_10-2" x1="224.06" y1="9029.37" x2="392.67" y2="9432.83" xlink:href="#Dégradé_sans_nom_10"/><linearGradient id="Dégradé_sans_nom_10-3" x1="475.13" y1="8924.45" x2="643.74" y2="9327.91" xlink:href="#Dégradé_sans_nom_10"/><linearGradient id="Dégradé_sans_nom_10-4" x1="493.75" y1="8916.66" x2="662.36" y2="9320.13" xlink:href="#Dégradé_sans_nom_10"/><linearGradient id="Dégradé_sans_nom_10-5" x1="479.72" y1="8922.53" x2="648.33" y2="9325.99" xlink:href="#Dégradé_sans_nom_10"/><linearGradient id="Dégradé_sans_nom_10-6" x1="482.37" y1="8921.42" x2="650.99" y2="9324.88" xlink:href="#Dégradé_sans_nom_10"/><linearGradient id="Dégradé_sans_nom_10-7" x1="468.19" y1="8927.35" x2="636.8" y2="9330.81" xlink:href="#Dégradé_sans_nom_10"/><linearGradient id="Dégradé_sans_nom_10-8" x1="276.58" y1="9007.42" x2="445.19" y2="9410.88" xlink:href="#Dégradé_sans_nom_10"/><linearGradient id="Dégradé_sans_nom_10-9" x1="379.54" y1="8964.4" x2="548.15" y2="9367.86" xlink:href="#Dégradé_sans_nom_10"/><linearGradient id="Dégradé_sans_nom_10-10" x1="338.78" y1="8981.43" x2="507.39" y2="9384.89" xlink:href="#Dégradé_sans_nom_10"/><linearGradient id="Dégradé_sans_nom_10-11" x1="142.77" y1="9063.35" x2="311.38" y2="9466.81" xlink:href="#Dégradé_sans_nom_10"/><linearGradient id="Dégradé_sans_nom_10-12" x1="211.2" y1="9034.75" x2="379.81" y2="9438.21" xlink:href="#Dégradé_sans_nom_10"/><linearGradient id="Dégradé_sans_nom_10-13" x1="84.3" y1="9087.78" x2="252.91" y2="9491.24" xlink:href="#Dégradé_sans_nom_10"/><linearGradient id="Dégradé_sans_nom_10-14" x1="116.1" y1="9074.49" x2="284.71" y2="9477.95" xlink:href="#Dégradé_sans_nom_10"/><linearGradient id="Dégradé_sans_nom_10-15" x1="90.96" y1="9085" x2="259.57" y2="9488.46" xlink:href="#Dégradé_sans_nom_10"/><linearGradient id="Dégradé_sans_nom_10-16" x1="65.66" y1="9095.57" x2="234.27" y2="9499.03" xlink:href="#Dégradé_sans_nom_10"/><linearGradient id="Dégradé_sans_nom_10-17" x1="199.04" y1="9039.83" x2="367.65" y2="9443.29" xlink:href="#Dégradé_sans_nom_10"/><linearGradient id="Dégradé_sans_nom_10-18" x1="46.17" y1="9103.72" x2="214.78" y2="9507.18" xlink:href="#Dégradé_sans_nom_10"/><linearGradient id="Dégradé_sans_nom_10-19" x1="120.04" y1="9072.84" x2="288.65" y2="9476.3" xlink:href="#Dégradé_sans_nom_10"/><linearGradient id="Dégradé_sans_nom_10-20" x1="159.69" y1="9056.27" x2="328.3" y2="9459.73" xlink:href="#Dégradé_sans_nom_10"/><linearGradient id="Dégradé_sans_nom_10-21" x1="271.53" y1="9009.53" x2="440.14" y2="9412.99" xlink:href="#Dégradé_sans_nom_10"/><linearGradient id="Dégradé_sans_nom_10-22" x1="74.72" y1="9091.78" x2="243.33" y2="9495.24" xlink:href="#Dégradé_sans_nom_10"/><linearGradient id="Dégradé_sans_nom_10-23" x1="118.06" y1="9073.67" x2="286.67" y2="9477.13" xlink:href="#Dégradé_sans_nom_10"/><linearGradient id="Dégradé_sans_nom_10-24" x1="347.6" y1="8977.74" x2="516.21" y2="9381.2" xlink:href="#Dégradé_sans_nom_10"/><linearGradient id="Dégradé_sans_nom_10-25" x1="459.33" y1="8931.05" x2="627.94" y2="9334.51" xlink:href="#Dégradé_sans_nom_10"/><linearGradient id="Dégradé_sans_nom_10-26" x1="227.69" y1="9027.86" x2="396.3" y2="9431.32" xlink:href="#Dégradé_sans_nom_10"/><linearGradient id="Dégradé_sans_nom_10-27" x1="232.31" y1="9025.92" x2="400.92" y2="9429.39" xlink:href="#Dégradé_sans_nom_10"/><linearGradient id="Dégradé_sans_nom_10-28" x1="222.79" y1="9029.9" x2="391.4" y2="9433.36" xlink:href="#Dégradé_sans_nom_10"/><linearGradient id="Dégradé_sans_nom_10-29" x1="268.01" y1="9011" x2="436.62" y2="9414.47" xlink:href="#Dégradé_sans_nom_10"/><linearGradient id="Dégradé_sans_nom_10-30" x1="155.53" y1="9058.01" x2="324.14" y2="9461.47" xlink:href="#Dégradé_sans_nom_10"/><linearGradient id="Dégradé_sans_nom_10-31" x1="190.21" y1="9043.52" x2="358.82" y2="9446.98" xlink:href="#Dégradé_sans_nom_10"/><linearGradient id="Dégradé_sans_nom_10-32" x1="246.31" y1="9020.07" x2="414.92" y2="9423.53" xlink:href="#Dégradé_sans_nom_10"/><linearGradient id="Dégradé_sans_nom_10-33" x1="182.31" y1="9046.82" x2="350.92" y2="9450.28" xlink:href="#Dégradé_sans_nom_10"/><linearGradient id="Dégradé_sans_nom_10-34" x1="181.74" y1="9047.06" x2="350.35" y2="9450.52" xlink:href="#Dégradé_sans_nom_10"/><linearGradient id="Dégradé_sans_nom_10-35" x1="396.09" y1="8957.48" x2="564.7" y2="9360.94" xlink:href="#Dégradé_sans_nom_10"/><linearGradient id="Dégradé_sans_nom_10-36" x1="308.07" y1="8994.26" x2="476.68" y2="9397.72" xlink:href="#Dégradé_sans_nom_10"/><linearGradient id="Dégradé_sans_nom_10-37" x1="288.74" y1="9002.34" x2="457.35" y2="9405.8" xlink:href="#Dégradé_sans_nom_10"/><linearGradient id="Dégradé_sans_nom_10-38" x1="315.37" y1="8991.21" x2="483.98" y2="9394.67" xlink:href="#Dégradé_sans_nom_10"/><linearGradient id="Dégradé_sans_nom_10-39" x1="320.13" y1="8989.22" x2="488.74" y2="9392.68" xlink:href="#Dégradé_sans_nom_10"/><linearGradient id="Dégradé_sans_nom_10-40" x1="328.63" y1="8985.67" x2="497.24" y2="9389.13" xlink:href="#Dégradé_sans_nom_10"/><linearGradient id="Dégradé_sans_nom_10-41" x1="293.55" y1="9000.33" x2="462.16" y2="9403.79" xlink:href="#Dégradé_sans_nom_10"/><linearGradient id="Dégradé_sans_nom_10-42" x1="284.27" y1="9004.21" x2="452.88" y2="9407.67" xlink:href="#Dégradé_sans_nom_10"/><linearGradient id="Dégradé_sans_nom_10-43" x1="464.22" y1="8929.01" x2="632.83" y2="9332.47" xlink:href="#Dégradé_sans_nom_10"/><linearGradient id="Dégradé_sans_nom_10-44" x1="394.93" y1="8957.96" x2="563.54" y2="9361.42" xlink:href="#Dégradé_sans_nom_10"/><linearGradient id="Dégradé_sans_nom_10-45" x1="329.67" y1="8985.24" x2="498.28" y2="9388.7" xlink:href="#Dégradé_sans_nom_10"/><linearGradient id="Dégradé_sans_nom_10-46" x1="349.32" y1="8977.03" x2="517.93" y2="9380.49" xlink:href="#Dégradé_sans_nom_10"/><linearGradient id="Dégradé_sans_nom_10-47" x1="454.78" y1="8932.95" x2="623.39" y2="9336.41" xlink:href="#Dégradé_sans_nom_10"/><linearGradient id="Dégradé_sans_nom_10-48" x1="294.95" y1="8999.75" x2="463.56" y2="9403.21" xlink:href="#Dégradé_sans_nom_10"/><linearGradient id="Dégradé_sans_nom_10-49" x1="412.48" y1="8950.63" x2="581.09" y2="9354.09" xlink:href="#Dégradé_sans_nom_10"/><linearGradient id="Dégradé_sans_nom_10-50" x1="298.86" y1="8998.11" x2="467.47" y2="9401.57" xlink:href="#Dégradé_sans_nom_10"/><linearGradient id="Dégradé_sans_nom_10-51" x1="99.68" y1="9081.35" x2="268.29" y2="9484.81" xlink:href="#Dégradé_sans_nom_10"/><linearGradient id="Dégradé_sans_nom_10-52" x1="390.69" y1="8959.73" x2="559.3" y2="9363.19" xlink:href="#Dégradé_sans_nom_10"/><linearGradient id="Dégradé_sans_nom_10-53" x1="267.13" y1="9011.37" x2="435.74" y2="9414.83" xlink:href="#Dégradé_sans_nom_10"/><linearGradient id="Dégradé_sans_nom_10-54" x1="194.37" y1="9039.69" x2="367.92" y2="9454.96" xlink:href="#Dégradé_sans_nom_10"/><linearGradient id="Dégradé_sans_nom_10-55" x1="243.37" y1="9021.3" x2="411.98" y2="9424.76" xlink:href="#Dégradé_sans_nom_10"/><linearGradient id="Dégradé_sans_nom_10-56" x1="298.12" y1="8996.73" x2="468.81" y2="9405.16" xlink:href="#Dégradé_sans_nom_10"/><linearGradient id="Dégradé_sans_nom_10-57" x1="224.99" y1="9028.98" x2="393.6" y2="9432.44" xlink:href="#Dégradé_sans_nom_10"/><linearGradient id="Dégradé_sans_nom_10-58" x1="43.09" y1="9105" x2="211.7" y2="9508.46" xlink:href="#Dégradé_sans_nom_10"/><linearGradient id="Dégradé_sans_nom_10-59" x1="148.61" y1="9060.9" x2="317.22" y2="9464.36" xlink:href="#Dégradé_sans_nom_10"/><linearGradient id="Dégradé_sans_nom_10-60" x1="184.83" y1="9045.77" x2="353.44" y2="9449.23" xlink:href="#Dégradé_sans_nom_10"/><linearGradient id="Dégradé_sans_nom_10-61" x1="92.73" y1="9084.26" x2="261.34" y2="9487.72" xlink:href="#Dégradé_sans_nom_10"/><linearGradient id="Dégradé_sans_nom_10-62" x1="99.13" y1="9081.58" x2="267.74" y2="9485.04" xlink:href="#Dégradé_sans_nom_10"/><linearGradient id="Dégradé_sans_nom_10-63" x1="103.82" y1="9079.62" x2="272.43" y2="9483.08" xlink:href="#Dégradé_sans_nom_10"/><linearGradient id="Dégradé_sans_nom_10-64" x1="109.13" y1="9077.4" x2="277.74" y2="9480.86" xlink:href="#Dégradé_sans_nom_10"/><linearGradient id="Dégradé_sans_nom_10-65" x1="113.75" y1="9075.47" x2="282.36" y2="9478.93" xlink:href="#Dégradé_sans_nom_10"/><linearGradient id="Dégradé_sans_nom_10-66" x1="119.67" y1="9073" x2="288.28" y2="9476.46" xlink:href="#Dégradé_sans_nom_10"/></defs><path class="cls-7" d="m305.27,400.24c-12.88,0-25.68-2.95-36.84-8.62-24.37-12.23-41.36-36.68-48-69.25-14.61-10.26-60.97-42.83-90.18-62.36-.08.08-.25.25-.49.25-4.76,2.95-10.17,4.27-16.16,4.27-5.09,0-10.42-.98-16.41-3.04-16.49-5.5-27.08-22.24-30.69-48.49-23.47-17.48-26.09-22.81-27.32-25.44-2.46-5.09-6.4-14.93-8.04-18.87-.82-1.89-1.15-3.86-1.15-5.66,0-22.4,1.48-26.75,4.6-30.69,4.43-5.42,10.09-6.81,31.76-7.8,6.81-.33,13.21-.49,17.15-.57,2.71-3.36,6.89-11.08,9.35-15.51,6.24-11.16,11.41-20.76,19.2-25.19,2.3-1.23,5.5-2.71,12.96-4.27v-2.13c0-4.1,1.56-7.8,4.27-10.5.25-1.39.66-2.63,1.23-3.86l.98-2.3c.33-.66.66-1.39,1.15-2.05v-5.17c0-8.29,6.4-14.77,14.69-15.02,0,0,19.53-.49,19.69-.49,3.94,0,7.8,1.56,10.59,4.43.98.98,1.81,2.13,2.46,3.36,2.71-1.81,5.42-3.04,7.71-3.94,1.72-.66,3.53-1.15,5.33-1.39.66-.08,1.39-.08,2.05-.08h.25c3.69,0,7.14.98,10.17,2.95,3.86-4.27,10.09-8.94,20.1-11.65,2.95-.98,5.91-1.56,8.94-1.56,8.04,0,15.26,3.61,20.35,9.52,1.39-.49,2.79-.66,4.27-.82h1.15c2.05,0,4.1.33,5.99.98.08-.08.25-.25.33-.49,2.71-2.79,6.4-4.51,10.42-4.6l17.97-.66h.49c3.86,0,7.55,1.48,10.42,4.1.08.08.25.25.33.33,2.71,2.79,4.27,6.4,4.43,10.26l.25,5.5c2.05,2.46,3.28,5.5,3.36,8.78v.33c1.23,1.81,1.89,3.94,2.3,6.24h0c13.7.66,19.12,1.81,22.73,3.36,7.8,3.28,20.43,15.67,47.35,43.16,0,0,4.43,4.51,5.66,5.74.57-.33,1.15-.57,1.72-.9,1.81-1.23,5.74-3.86,11.49-3.86,3.94,0,7.71,1.23,11,3.69,5.17,3.86,8.62,10.83,9.93,17.48l.82.08c44.64,4.6,137.28,14.11,201.53,45.05.49.25.9.49,1.39.82.08,0,.25.08.25.08,9.35,5.91,9.68,18.63,8.78,30.28-.66,8.04-2.05,16.08-2.38,17.15-.33,1.15-.9,3.53-2.95,6.89,4.76,5.66,4.27,13.79,3.94,20.1v.9c-.08,8.04-5.17,12.31-10.5,14.77-.33.57-.66,1.15-.98,1.72-.08.08-.08.25-.25.33-25.52,35.04-26.91,35.78-30.03,37.58-3.53,1.89-7.22,2.3-15.67,2.3-3.69,0-8.45-.08-14.11-.25-17.72,10.75-59.74,35.94-76.56,43.57-13.54,17.15-18.79,19.78-20.76,20.76-2.71,1.39-5.74,2.05-9.27,2.05-6.07,0-13.79-2.3-20.6-4.76-9.19,4.27-25.19,11.08-37.5,12.55-2.3.25-4.43.49-6.56.49-11.49,0-20.76-4.27-26.75-12.23-3.86-.9-8.45-2.05-13.54-3.69-6.56,12.31-17.48,20.76-31.67,24.04-5.58,1.23-11.65,1.89-17.89,1.89Z"/><g><g><path class="cls-64" d="m397.34,355.27c-4.84.33-17.07-5.42-17.07-5.42l2.79,13.21,1.39-6.32,9.93,2.3,2.79,8.78,3.36-8.78c1.39-.25,43.49-17.64,43.49-17.64l-8.12,13.79,25.68-21.01,2.63-4.27c.16.08-62.03,25.03-66.87,25.36Z"/><path class="cls-52" d="m337.68,343.62s9.93,7.3,23.47,11.65l-3.2-2.3,14.44,1.72-34.71-11.08Z"/><path class="cls-54" d="m596.16,215.78l-3.28,1.23s2.13,3.94,2.46,6.07c.08-.08-.41-5.33.82-7.3Z"/><path class="cls-12" d="m611.91,225.46l6.56-4.51,3.2-11.49s-10.17.57-12.06,2.95c2.3,1.64,2.3,13.05,2.3,13.05Zm4.51-6.07l.82-.08-.25-.82,2.95-6.89-2.38,8.29-4.51,2.95,3.36-3.45Z"/><path class="cls-33" d="m605.43,232.93c.25-2.46.66-4.51.66-7.3,0-6.07-1.15-11-2.46-11s-2.46,4.84-2.46,11c0,3.2.33,6.07.82,8.04.08-.08,1.39-.98,3.45-.74Zm-2.71-11c2.3-.33,1.48,7.55,1.48,7.55-.57-.08-1.48.33-1.48.33-.57-1.39-.08-5.66,0-7.88Z"/><polygon class="cls-10" points="616.1 244.58 616.1 248.19 616.18 257.46 620.28 256.23 620.04 247.7 616.1 244.58"/><path class="cls-56" d="m595.99,229.89l-.66,5.42s-1.23,5.17-2.3,6.81l5.99-2.95c-.16,0-3.04-5.58-3.04-9.27Z"/><path class="cls-60" d="m466.51,217.09s9.6-5.01,13.87-7.14c-57.19-21.83-172.97-49.56-175.02-49.81-1.89-.25-62.36,8.04-84.84,11.49l70.4,21.33-79.18-19.69c-4.76,1.48-7.3,4.76-7.3,4.76,102.9,26.59,151.31,51.2,173.05,65.73l51.04-14.11-45.38,18.05c8.12,6.07,10.59,9.68,10.59,9.68l65.64-21.91c-10.75-7.55-47.26-28.39-149.09-53.75,0,0,124.4,26.42,158.04,50.87l35.53-11.9c-4.6-2.71-11.16-5.74-18.95-8.78l-18.38,5.17Z"/><path class="cls-48" d="m419.58,159.57l-33.56-6.4c-20.1,1.23-57.03,3.61-57.03,3.61,99.53,21.58,147.62,38.07,170.35,47.92l26.18-4.76-22.24,6.4c12.23,5.5,15.1,8.62,15.1,8.62,5.5-2.38,21.5-6.97,37.83-11.65-8.45-5.74-36.19-19.12-124.07-36.6,0,0,95.92,11.73,128.99,35.28,19.86-5.42,38.98-10.42,38.98-10.42-3.36-1.72-7.22-3.28-11.41-4.84l-20.02,3.69s10.42-3.2,16.16-5.09c-60.06-21.09-184.79-32.99-186.43-32.99-.33,0-3.36.25-8.04.49l29.21,6.73Z"/><path class="cls-9" d="m409.24,146.93c.25,0,.33-3.04.33-3.04l-2.95-.66s3.04-.82,3.2-1.81c.25-.98-2.63-6.81-3.53-7.88-.9-1.23-3.2,1.72-3.2,1.72-.9,1.48-.25,2.95-.25,2.95-.98-.33-1.81-2.63-1.81-2.63,0,0-5.01,2.79-5.99,3.94,0,0,4.51,3.94,6.07,5.42,1.81,1.31,7.96,1.97,8.12,1.97Z"/><path class="cls-34" d="m180.88,161.54c-.57,1.23,1.15,5.17,1.15,5.17,0,0-4.18,1.81-6.32,0-2.13-1.81-2.13-5.17-2.13-5.17,0,0-2.13-.08-3.61,0,0,0,.57,2.95.82,4.18.25,1.39,2.3,4.51,8.78,4.6,6.56.08,15.02-4.6,15.02-4.6v-1.15c-5.25-4.84-13.7-3.04-13.7-3.04Z"/><path class="cls-31" d="m219.03,58.07c.25-3.69,1.15-5.17,1.15-5.17l-2.95,4.43-1.56.57v3.61h1.15l-.25-1.56s1.72,3.69,3.61,5.42c-.08-.25-1.31-3.61-1.15-7.3Z"/><polygon class="cls-25" points="95.62 147.59 121.39 156.53 103.42 147.83 105.06 143.9 95.62 147.59"/><polygon class="cls-40" points="139.28 160.31 137.31 161.21 165.86 170.32 164.38 168.43 139.28 160.31"/><polygon class="cls-35" points="134.68 238.1 134.68 240.06 185.72 275.18 185.55 273.63 134.68 238.1"/><path class="cls-22" d="m111.87,223.24c-3.2-.9-4.6-2.79-4.6-2.79.49,1.39,1.23,4.27,4.18,5.42.49.25,1.39.57,2.38,1.15l1.23-1.39c0-.08.49,1.39.82,2.46,5.17,2.95,12.64,7.55,12.64,7.55l-.25-3.04c-.16,0-13.13-8.45-16.41-9.35Z"/><path class="cls-23" d="m388.64,319.9c-.08-4.6-.25-8.78-.25-12.55l-41.11-23.47,41.11,15.1c0-2.79.08-5.33.25-7.55h0c-17.97-35.37-97.65-66.96-97.65-66.96,45.21,11.41,90.34,45.38,99.04,52.19.82-3.36,1.56-3.36,1.56-3.36-49.07-50.71-194.39-84.76-194.39-84.76-.57,1.72-.98,3.53-1.48,5.17l49.4,14.93-50.55-9.27c-1.72,7.88-2.63,15.92-3.04,23.71l13.13,4.6-13.29.33c-.57,15.1.57,28.39.9,35.69l15.59,10.42s2.63-29.29,22.4-33.56c0,0-17.89,8.78-18.95,35.78l4.51,2.95c5.74-33.89,32.99-30.28,49.23-24.86,25.19,8.78,42.59,32.33,52.84,50.63h0l31.51,13.79-27.57-6.32c4.84,9.85,7.22,16.82,7.22,16.82l40.7,12.8s-.82-4.84-.9-6.65c-.9-10.01,11-15.59,19.78-15.59Z"/><path class="cls-4" d="m73.3,175.32c1.89,0,3.53.25,4.6.33.25-6.32,1.15-12.8,2.05-17.64l-14.93-6.4,15.59,2.46c.57-2.79.98-4.6.98-4.6-10.59-5.74-32.08-6.07-32.08-6.07l-.98,15.26,13.79,5.66-13.7-3.04c1.15,2.63,6.81,14.93,7.47,16.82.82,2.13,12.8,11.65,12.8,11.65,0,0-.49-.98.82-5.09,1.23-4.18,8.45,0,8.45,0-.25-1.89-.25-3.94-.25-5.99h0s-6.24-3.28-7.47,0c0,0-.82-3.36,2.87-3.36Z"/><polygon class="cls-59" points="192.61 273.71 194.09 280.85 222.73 300.46 218.05 290.53 192.61 273.71"/><path class="cls-8" d="m151.26,55.44l1.81.33c-.57.25-.98.98-.98,1.89s.49,1.72,1.15,1.89l-1.39.08v2.3l11.41.08v-1.81l-2.46-.49c.82-.25,1.48-1.23,1.48-2.38s-.57-2.05-1.23-2.3l2.3-.57v-1.23l-11.98.33-.08,1.89h0Zm6.56.41l2.3-.57c.57.49.9,1.15.9,2.05,0,.98-.49,1.81-1.15,2.13l-1.56-.33.57-.08s-.33-.25-.49-.98c-.08-.82.33-1.72.33-1.72l-.9-.49h0Zm-4.02,0l1.89.33-.9.57s.33.82.25,1.39c-.08.66-.49.82-.49.82l.98.25-1.72.25c-.57-.33-.9-.98-.9-1.81.08-.74.41-1.39.9-1.81Z"/><path class="cls-61" d="m281.89,53.72c0,.9.49,1.72,1.15,1.89l-1.39.08v2.71l11.41-.33v-1.81l-2.46-.49c.82-.25,1.48-1.23,1.48-2.38s-.57-2.05-1.23-2.3l2.3-.57v-1.23l-11.98.33v1.72l1.81.33c-.57.49-1.07,1.31-1.07,2.05Zm5.91-1.56l2.3-.57c.57.49.9,1.15.9,2.05,0,.98-.49,1.81-1.15,2.13l-1.56-.33.57-.08s-.33-.25-.49-.98c-.25-.82.33-1.72.33-1.72l-.9-.49h0Zm-4.1-.08l1.89.33-.9.57s.33.82.25,1.39c-.08.66-.49.82-.49.82l.98.25-1.72.25c-.57-.33-.9-.98-.9-1.81.08-.82.33-1.48.9-1.81Z"/><path class="cls-30" d="m88.4,178.69h0s1.39-20.92,3.94-23.14c.33.25.98.49,1.89.66l28.88,9.6.9,5.42-22.4-5.42,23.06,9.85v-3.2c.57-4.76,1.39-8.45,1.39-8.45l-32.66-10.59-3.86-1.56-1.81,8.62c-1.48,6.97-1.89,14.2-2.05,16.74h0v4.18c9.68,2.63,17.97,17.15,17.97,17.15-2.46-9.44-10.91-16.66-15.26-19.86Z"/><path class="cls-16" d="m182.68,185.5l3.2,9.03c-.25-4.43,2.13-10.59,2.13-10.59l-54.89-16.08-1.23,8.78,3.69-5.09,47.1,13.95Z"/><path class="cls-18" d="m519.11,229.64s-.98-3.53-3.94-3.53l-118.32,40.78,2.46,3.2c12.23-5.17,33.23-10.17,51.86-17.07,30.03-11,67.94-23.39,67.94-23.39Z"/><path class="cls-6" d="m617.08,198.22c1.56,0,3.53-.57,3.53-.57l-.66-1.23-1.81-.66s-25.27,5.5-45.95,12.31c-11.49,3.69-46.2,14.61-46.2,14.61,0,0,1.23,2.63,2.05,4.18-.25.08,78.44-26.83,89.03-28.64Z"/><path class="cls-45" d="m239.87,65.04c-.08.08-2.05,1.89-2.13,1.72l.98,3.94s3.69-2.3,5.5-6.97l-2.95-1.72c-.25,1.15-.82,2.22-1.39,3.04Z"/><path class="cls-51" d="m240.2,52.65c.33.49.57.98.82,1.48l3.28-1.39c-1.15-3.2-3.2-6.32-6.4-6.97l-1.81,3.94c0-.33,2.95,1.31,4.1,2.95Z"/><path class="cls-43" d="m236.84,70.7l-.57-3.53c-4.43,0-8.12-1.81-8.62-9.19-.49-7.3,6.07-8.45,6.07-8.45l1.89-3.94s-10.75,1.39-11.41,11.16c.41,16.49,12.64,13.95,12.64,13.95Z"/><polygon class="cls-21" points="295.75 64.55 297.48 67.17 297.15 62.58 278.85 63.15 278.85 67.83 280.66 64.8 295.75 64.55"/><polygon class="cls-36" points="147.89 67.34 147.56 72.34 149.12 69.23 166.76 68.73 168.16 71.69 167.75 66.6 147.89 67.34"/><path class="cls-14" d="m195.48,69.14c2.13,0,3.86-2.95,3.86-6.65s-1.72-6.65-3.86-6.65-3.86,2.95-3.86,6.65,1.72,6.65,3.86,6.65Z"/><path class="cls-13" d="m260.55,67.17c2.13,0,3.86-2.95,3.86-6.65s-1.72-6.65-3.86-6.65-3.86,2.95-3.86,6.65,1.72,6.65,3.86,6.65Z"/><path class="cls-24" d="m187.44,61.84l-2.13.66.33,2.3,1.89.25c-.16-1.4-.08-3.2-.08-3.2Z"/><path class="cls-50" d="m187.85,66.03l-1.72-.08.49.9c0,.08,1.56,1.81,2.38,2.3,0,0-1.15-2.54-1.15-3.12Z"/><path class="cls-11" d="m571.87,223.57l-116.11,38.73s3.28,9.6,4.6,13.29c-.33.08-.66.25-.9.33l-6.56-12.06,2.71,14.61h0c.08.9.82,2.38.98,2.79.33.57,1.39.66,3.53-1.72.66-.82,6.65-2.71,14.77-5.17,3.53-.98,7.3-2.13,8.7-2.63,15.92-4.76,35.45-10.17,43.16-12.88,11.9-6.56,49.4-24.94,49.4-24.94l-3.28-.9h-.08l-.82-7.22,1.56-.49c.08,2.63,2.3,5.74,2.3,5.74-1.15-2.63.25-9.27.25-9.27l-4.18,1.81Zm-106.75,42.75l56.45-17.07.25,1.72-50.96,15.02-5.01,1.72c-.25-.33-.49-.9-.74-1.39Zm3.04,3.86v1.39c-.33-.57-.66-1.23-1.15-1.89l55.22-15.59.57,3.28c-10.26,2.46-52.02,12.39-54.65,12.8Zm59.08-27l-1.39,12.23-1.23.25-3.36-8.29h0l-.08-.33.08.33-51.61,15.26-5.5,1.89c-.33-.57-.57-.9-.57-.9l54.48-18.95,5.74-.25-.49,1.15,1.56,7.3.82-10.83,44.88-15.59v1.39l-43.24,15.92v2.71l43.41-16.74v1.56l-43.41,16.41-.08-4.51Zm1.81,11.41c-.66.33-1.23.66-1.72.9v-5.09l43.41-17.4v.25c-4.6,1.72-32.58,16.49-41.68,21.33Z"/><path class="cls-55" d="m421.22,273.95s1.39,2.3,1.48,3.61c0,0-.08-3.53.33-4.51l-1.81.9Z"/><path class="cls-26" d="m413.5,281.5l-.66-3.53-5.74,3.86c-1.81,1.39-3.28,3.69-3.36,5.99-.49,7.14-1.15,21.01-1.15,21.01,0,0,13.37-1.31,10.91-27.32Zm-9.03,22.73s.08-4.51.33-8.78c.08-3.69.25-7.22.33-7.22.33-.33.66-.57.98-.66,1.56-.25,3.86,2.05,4.27,6.89.49,7.06-5.91,9.76-5.91,9.76Z"/><path class="cls-65" d="m437.22,268.7l-6.65,2.13c-1.56,2.63-2.71,6.81-2.71,11.49,0,7.88,1.81,14.2,5.5,14.2s7.8-6.4,7.8-14.2c0-5.99-1.48-11.57-3.94-13.62Zm-6.24,24.7c-3.04-5.66-.57-16.25,0-17.31,0,0,2.05-.08,3.53,2.3.66,1.15,1.39,2.79,1.48,5.33.66,7.71-5.01,9.68-5.01,9.68Z"/><path class="cls-66" d="m439.27,299.8c7.3-1.48,9.93-14.61,9.93-14.61l-2.63.57c-.57,10.09-7.96,14.11-7.3,14.03Z"/><path class="cls-19" d="m449.12,278.47s-1.39-8.12-5.01-10.42c0,0,2.95,5.33,2.95,11l2.05-.57Z"/><path class="cls-49" d="m417.03,304.07c.57-1.15.82-1.81.82-1.81-.25.57-.66,1.23-.82,1.81Z"/><path class="cls-1" d="m417.03,304.07c-1.56,3.2-5.66,9.35-14.93,11.49v1.15c0,.16,9.85-1.56,14.93-12.64Z"/><path class="cls-39" d="m589.18,238.59c.98-2.3,1.81-5.66,1.81-9.52,0-4.43-1.56-8.37-2.79-10.5l-3.86,1.15c-.9,2.3-1.48,5.5-1.48,9.27,0,1.89.08,3.61.49,5.33,2.46-.25,5.83,4.27,5.83,4.27Zm-4.68-15.26s3.61-1.15,4.18,4.18-1.39,7.8-1.39,7.8c-.57-.9-3.04-1.89-3.04-1.89-.74-3.45.25-10.09.25-10.09Z"/><path class="cls-67" d="m491.78,285.2s19.86-5.91,38.4-12.64c32.58-11.98,34.55-17.4,34.55-17.4l-5.66.98,22.73-12.88s-.82-.33-1.15-.57c-.33-.33-.82-.08-3.86.9-3.04.98-46.11,25.52-49.56,27s-35.45,10.26-35.45,10.26c0,0-14.77,3.86-21.99,6.56-7.22,2.71-6.89,7.8-6.89,7.8l10.75-3.69s-.25-5.74,8.94-7.55c7.63-1.56,9.19,1.23,9.19,1.23Z"/><path class="cls-44" d="m483.66,293.4c-1.81.57-2.3,3.86-2.3,3.86,0,0,1.23-2.3,2.05-2.13.66.08.08,18.3-.08,25.44-1.72,1.39-6.89,1.89-6.89,1.89,0,0,3.2,2.46,5.99,2.3-3.86,6.89-21.5,29.46-21.5,29.46l5.66-14.61-3.61,3.28-15.59,14.36s5.5,4.18,14.44,4.18c1.89,0,27.24-33.07,27.24-37.17s.98-30.69.9-32.99c-.08.16-4.51,1.56-6.32,2.13Z"/><polygon class="cls-58" points="479.56 292.42 481.53 292.99 478.57 291.19 478.57 292.09 479.07 300.62 479.56 292.42"/><path class="cls-3" d="m607.4,241.54c-1.15.66-.25,5.74-.25,5.74,0,0,.66-4.6,1.15-4.51s-.08,17.15-.08,17.15l-3.04-1.89,1.39,4.1-20.02,28.8,2.79-9.27-2.95-.98-13.21,14.44h13.79l23.47-30.93.66-23.3c0,.08-2.63-.08-3.69.66Z"/><path class="cls-27" d="m400.95,346c5.5-1.56,69.01-26.18,69.01-26.18,0,0,3.86-13.29,2.63-20.92l-13.54,4.51s-1.15,5.33,3.86,9.35l-7.22-2.05s-29.46,17.48-43.74,18.87c-14.2,1.39-16.25.57-16.25.57-5.33-1.56-12.96-1.23-14.93,3.04,0,0,2.05,2.3,8.12,3.28,0,0-7.47-.08-9.03,0l-.25,4.51c.08-.08,15.92,6.73,21.33,5.01Z"/><path class="cls-32" d="m598.7,255.41s.33-3.53.25-3.53-6.97,3.61-9.52,1.72h0l-16.16,12.64,14.2-14.61c-1.56-1.72-2.63-3.53-2.63-3.53-5.42,2.38-18.95,16.41-23.88,18.05-3.94,1.39-65.15,25.85-65.15,25.85v15.67l91.25-41.11,11.65-11.16Z"/><path class="cls-62" d="m424.91,300.21s-.98,8.04-8.12,14.44c4.43-2.63,19.28-9.85,19.28-9.85,0,0-9.93.9-11.16-4.6Z"/><path class="cls-41" d="m181.04,223.57c-2.05,7.71-2.05,27.82-2.05,27.82l-41.68-23.96-3.69-10.17v10.5l49.48,31.26-.98-8.12-1.07-27.32Z"/><polygon class="cls-38" points="497.53 317.2 497.53 328.27 490.31 336.15 492.77 335.74 502.45 326.8 503.19 319.33 564.24 287.57 560.71 295.21 576.3 278.55 497.53 317.2"/><path class="cls-20" d="m623.07,244.74c-.9-.49-4.76-3.61-7.8-6.07v-.08h-.08c-.08,0-.08-.08-.25-.25,2.46-2.38,7.88-7.88,8.78-11.98.08-.33,5.42-28.88-.57-32.74,0,0-.08,0-.08-.08-62.28-29.95-153.28-39.3-197.01-43.82-4.76-.49-9.27-.9-13.13-1.39,0-1.23.25-3.28.57-5.17.66-3.69-1.72-11.32-5.01-13.7-2.95-2.13-5.33-.49-6.65.57-.33.25-.57.33-.82.57-3.2,1.56-8.12,4.43-9.6,7.47-4.18-4.1-9.19-9.27-14.36-14.61-17.31-17.64-36.84-37.5-42.91-40.12-3.2-1.39-11.49-2.05-22.57-2.46-.9-1.56-3.86-3.04-8.62-4.6,0-.08.08-.33.08-.49v-6.4c0-.33-.08-.82-.49-.98-.25-.25-.57-.49-.98-.33h-.66l-.25-6.32c0-.33-.08-.57-.33-.9l-.98-1.23c-.25-.33-.66-.49-1.15-.49h-.66l-.49-12.23c0-.33-.25-.66-.49-.98-.25-.25-.66-.33-.98-.33l-17.97.66c-.82,0-1.39.66-1.39,1.48l.49,12.23h-.08c-.57,0-.98.33-1.23.9l-.9,2.05c-.08.25-.08.33-.08.57l.25,5.5-9.27.33c1.48-2.05,2.38-4.84,2.38-8.12,0-6.07-3.2-10.83-7.22-10.83h-.25c-.9,0-1.72.25-2.46.66-4.18,1.81-8.29,6.24-8.7,9.93-.25,2.3.66,5.01,2.63,7.14.57.57,1.15,1.15,1.72,1.56l-8.45.33c2.46-3.04,4.1-7.14,4.1-11.65,0-9.27-6.4-16.74-14.36-16.74-1.72,0-3.28.33-4.76.9-11.16,2.79-15.51,8.7-16.58,11.49h-.25c-.82,0-1.39.57-1.39,1.39v8.45c0,.82.66,1.39,1.39,1.39h.82c1.15,1.15,2.95,2.13,4.27,2.79l-1.39,2.79-17.48.66c2.13-1.81,3.61-5.17,3.61-9.19,0-5.99-3.2-10.59-7.3-10.59h-.33c-.82,0-1.48.25-2.13.57-4.6,1.56-10.59,5.91-11.16,9.85-.33,2.3.66,5.01,2.63,7.14.98,1.15,2.13,1.89,3.36,2.63l-15.51.57v-6.24c0-.25-.08-.57-.25-.82l-1.23-2.05c-.25-.49-.66-.66-1.23-.66h-1.23v-12.06c0-.33-.08-.66-.49-.98-.25-.25-.66-.49-.98-.33l-19.2.49c-.82,0-1.39.66-1.39,1.39v11.98h-1.23c-.57,0-.98.33-1.23.82l-1.15,2.46c-.08.25-.08.33-.08.57v6.24l-2.71.08c-.82,0-1.39.66-1.39,1.39v6.07c0,.33.08.82.49.98.25.25.57.33.98.33h0l5.5-.25c-1.15,1.48-2.38,3.36-3.36,5.5-11.41,1.81-20.1,3.69-23.39,5.5-4.43,2.46-9.03,11-13.87,19.86-5.74,10.5-12.31,22.4-17.48,22.57-.33,0-39.8.57-42.01,3.28-1.48,1.81-1.72,14.69-1.72,22.24,0,.25,0,.33.08.57.25.57,5.09,12.8,7.71,18.22,2.71,5.5,24.53,21.5,27,23.3.25.25.57.25.9.25,1.39,14.77,5.99,37.99,22.24,43.41,4.51,1.48,8.62,2.3,12.06,2.3s6.56-.82,9.03-2.3c3.2-1.89,4.6-4.76,5.42-6.56,31.76,20.92,102.73,70.81,104.87,72.29,0,.33.08.66.08.98,5.17,30.52,20.02,53.17,41.6,63.92,9.35,4.76,20.1,7.14,30.69,7.14,5.09,0,10.17-.57,15.1-1.72,14.11-3.28,23.47-13.29,26.67-28.39,10.17,4.6,20.43,7.14,27.49,8.7.98.25,2.05.49,2.95.66,3.2,7.14,9.03,10.59,17.97,10.59,1.56,0,3.2-.08,4.84-.33,13.54-1.56,34.71-11.98,38.48-13.87,4.27,1.81,19.28,7.88,24.21,5.42,4.76-2.38,16.08-16.99,18.3-19.86,12.8-4.27,75.65-42.5,81.56-46.11,11.49.33,25.27.66,26.91-.25,1.56-.9,16.74-21.5,25.68-33.64.25-.25.33-.57.25-.9l-.25-3.53c9.19-2.05,9.19-3.69,9.19-4.51,0-.33,0-.82.08-1.48-.08-6.89-.41-9.52-1.97-10.34Zm-16.58-33.4c3.69-1.15,6.07-1.89,6.65-2.05,4.84-.98,8.62-1.15,9.85-.9-.82,5.33-3.28,12.06-5.09,16.49-1.89,4.43-7.71,9.03-8.94,9.93,0,0-.08,0-.08-.08.66-2.63,1.15-5.91,1.15-9.19.08-5.74-1.23-11.49-3.53-14.2Zm-112.42,80.74c-.08-1.23-.33-2.3-.82-3.04,5.66-1.72,22.4-6.65,29.62-9.85,2.13-.9,5.74-2.3,9.85-3.86,12.64-4.76,30.03-11.32,34.87-16.82,5.99-6.65,17.72-12.39,17.89-12.55v-.08c2.46,2.95,4.76,5.66,7.55,5.42,2.95-.25,6.4-1.72,8.37-2.63v6.65l-10.83,11.49-96.58,45.54c.16-8.12.25-17.15.08-20.27Zm-19.36.57l-15.84,5.91c1.81-4.84,3.94-9.85,11.08-12.39,6.89-2.63,17.72-5.42,28.23-8.29,12.06-3.2,23.47-6.24,29.05-8.78,4.1-1.89,12.39-6.56,21.33-11.41,12.31-6.81,29.13-16.08,31.51-16.16.9,0,2.05,1.15,3.28,2.38-2.63,1.39-12.39,6.65-17.97,12.88-4.43,5.01-22.15,11.65-33.81,16.08-4.18,1.56-7.71,2.95-9.93,3.94-7.71,3.36-26.59,8.94-30.52,10.09-2.05-1.56-4.84-2.3-7.47-2.3-2.46,0-9.19,3.61-9.19,7.47.25.16.25.33.25.57Zm119.96-63.1c0-5.5-1.39-10.42-3.61-13.21,3.04-.98,5.74-1.89,8.29-2.71-1.39,3.04-2.13,7.55-2.13,11.98,0,5.17.98,11,3.28,13.87-1.56,1.15-4.84,3.28-7.22,3.94-.33.08-1.15-.33-1.89-1.15,2.05-2.71,3.28-7.55,3.28-12.72Zm-5.42,10.91c-.25-.25-.33-.33-.57-.57-2.13-2.13-4.43-4.51-6.89-5.33-.33-1.72-.49-3.36-.49-5.17,0-4.27.98-8.37,2.63-10.83h0c1.48-.49,2.79-.9,4.18-1.39,1.89,1.48,3.86,5.91,3.86,12.23,0,4.51-1.07,8.7-2.71,11.08Zm10.75-14.77c0-8.04,2.38-12.96,3.61-12.96s3.61,4.84,3.61,12.96c0,3.04-.33,5.99-.98,8.45-1.23-.25-2.38-.25-3.28.33-.49.25-.98.66-1.39,1.48-.9-2.38-1.56-6.07-1.56-10.26Zm23.3-24.29c.08,1.23.08,2.71.08,4.27-3.04-.57-8.29.33-10.75.9-5.33,1.15-153.85,50.14-185.28,60.8h0c-2.46.82-4.27,1.48-5.09,1.72-4.27,1.48-18.63,6.89-21.83,12.39-2.13,3.69-2.3,19.45-2.3,38.16,0,.98.49,1.89,1.39,2.46,1.15.82,2.79,1.15,4.6,1.15,1.56,0,3.2-.25,4.51-.66,3.04-.9,39.8-16.49,42.83-20.43.82-.98,1.48-2.79,2.38-5.09,2.13-5.33,5.33-13.46,12.39-15.59,3.04-.9,8.45-2.38,14.93-4.18,16.49-4.43,39.22-10.5,47.76-15.02,11.9-6.32,49.15-24.29,50.63-24.94,2.05-.9,4.76,1.89,7.22,4.51,2.63,2.71,4.84,5.01,7.22,4.27,2.38-.82,5.42-2.63,7.22-3.86v3.28c-.98.57-5.42,2.63-8.62,2.79-1.23.08-3.53-2.38-5.17-4.43-2.38-2.79-4.6-5.42-7.22-5.42s-14.11,6.24-32.9,16.58c-8.78,4.84-17.15,9.52-21.25,11.32-5.42,2.46-17.15,5.66-28.56,8.62-10.59,2.79-21.58,5.66-28.56,8.37-8.94,3.36-11.32,10.17-13.21,15.59-1.39,3.86-2.46,7.14-5.5,8.62l-1.89.9c-9.27,4.43-28.56,13.7-35.94,15.26-5.42,1.15-14.44,3.04-16.74,1.15-.25-.25-.49-.49-.49-1.15v-6.65c-.08-13.7-.25-32.17,2.79-39.47h.66c0-.33-.08-.66-.08-.98,3.2-4.6,26.18-11.41,43.16-16.41,10.75-3.2,20.92-6.07,26.01-8.37,8.37-3.69,44.72-15.51,74.01-24.86,19.53-6.32,36.51-11.73,41.6-13.7,19.28-7.3,35.86-12.23,39.96-11.9Zm-44.31,33.23c-.25.08-.49.08-.66.25-1.56.82-38.89,18.79-50.87,25.11-8.37,4.43-30.69,10.42-47.1,14.77-6.4,1.72-11.98,3.2-15.02,4.18-8.37,2.63-11.9,11.41-14.2,17.31-.82,1.89-1.48,3.61-2.05,4.43-2.3,2.79-36.92,18.05-41.44,19.53-2.38.82-4.84.66-6.07.25,12.39-.9,22.4-14.03,22.4-30.03,0-.98,0-2.13-.08-3.2,1.48,9.35,7.22,16.49,14.2,16.49,8.04,0,14.61-9.52,14.61-21.09,0-7.3-2.79-14.44-6.97-18.38,33.64-11.16,96-31.84,134.41-44.31-1.15,2.71-1.72,6.07-1.72,9.6.08,1.81.25,3.45.57,5.09Zm-160.5,53.66c0-4.84-.9-9.6-2.63-13.7.49-.25.82-.33,1.23-.57,2.71,4.76,4.1,10.42,4.1,16.25,0,14.77-9.19,26.91-20.43,27.24v-2.71c9.76-.41,17.72-12.23,17.72-26.5Zm-17.64,23.8c0-11.98.33-26.34,1.89-29.13,1.15-2.05,5.09-4.6,10.59-7.22,1.48,3.69,2.38,8.04,2.38,12.55-.08,12.88-6.65,23.22-14.85,23.8Zm22.73-27.49c-.57-4.18-1.89-8.12-3.86-11.65,1.15-.49,2.3-.82,3.36-1.23.49-.25,1.39-.49,2.38-.82-1.23,3.28-1.89,7.3-1.89,11.65-.16.74-.16,1.39,0,2.05Zm19.86-4.02c0,9.35-4.84,17.4-10.83,18.22-3.69-3.04-6.32-9.19-6.32-16.16,0-5.09.98-9.68,2.79-12.88,2.71-.9,6.07-2.05,10.09-3.36,2.71,3.69,4.27,9.03,4.27,14.2Zm-1.48-15.18c.25-.08.49-.08.66-.25,4.27,3.04,7.3,10.17,7.3,17.4,0,10.09-5.33,18.3-11.9,18.3-.66,0-1.39-.08-2.05-.25,5.91-2.71,10.09-10.75,10.09-20.02.16-5.58-1.39-11.08-4.1-15.18Zm-44.15,8.29c-.82-2.3-2.13-4.51-3.94-6.81,1.39-.49,3.53-1.23,6.65-2.38,44.47-16.25,83.45-29.79,116.85-40.78,3.61,2.79,5.09,5.01,5.5,6.56-25.27,8.12-49.48,16.16-56.37,19.2-4.84,2.3-14.93,5.17-25.52,8.29-21.42,6.32-37.58,11.24-43.16,15.92Zm224.01-77.71c.57.33.9,1.39,1.15,2.71-8.45,0-32.9,9.03-40.78,12.06-5.01,1.89-21.91,7.3-41.44,13.7-5.01,1.56-10.17,3.28-15.26,5.01-.57-2.13-2.3-4.43-5.01-6.81,42.18-13.79,75-23.14,98.14-28.14,1.07.57,2.13.98,3.2,1.48Zm-228.03-56.54c0-1.15,3.2-3.86,8.45-6.56.33-.25.82-.49,1.15-.82,1.48-.98,2.3-1.39,3.36-.57,2.13,1.56,4.43,7.88,3.86,11-.33,2.05-.57,4.1-.57,5.42-5.17-.57-8.7-1.15-9.52-1.72-1.15-.66-3.94-3.28-7.55-6.89h.82v.16h0Zm-86.98-58.83c-8.62-.25-18.54-.25-28.8-.08.57-.98,1.56-2.13,3.2-2.71l15.34-.57c4.1.98,7.88,2.38,10.26,3.36Zm-12.39-32.33l.33,10.75-15.26.57-.33-10.75,15.26-.57Zm-16.82,14.28l20.1-.66.33.33.25,5.74-20.76.82-.25-5.33.33-.9Zm55.47,23.22c5.66,2.38,25.77,22.89,42.01,39.55,11.9,12.06,21.25,21.58,24.04,23.39,1.89,1.15,9.03,1.89,26.59,3.69,41.93,4.27,127.19,13.13,188.64,40.21-23.39,5.17-55.72,14.61-96.58,27.98-5.01-3.61-12.39-7.47-22.48-11.73l-4.27,1.23c11.16,4.6,18.63,8.45,23.47,11.65-23.71,7.8-50.38,16.99-79.76,27.49-11.32,4.1-23.06,8.29-35.12,12.64-3.61,1.39-6.4,2.38-7.71,2.79-31.84-35.04-166-76.15-185.85-81.15-3.28-.82-6.97-1.81-11.16-2.95,1.23-3.61,8.04-8.04,12.55-10.17,5.5-1.15,11.16-2.13,16.74-3.2l64.17-9.52c5.17-.57,10.26-1.15,15.26-1.72l-.08.33c.57.08,55.8,12.55,110.28,28.14,32.41,9.27,55.47,16.99,71.72,23.39l1.81-.82,2.46-.49c-18.3-7.3-43.57-15.67-75.33-24.78-43.41-12.39-87.14-22.81-103.64-26.67,47.76-4.84,82.47-5.66,83.04-5.74.57,0,.98-.33,1.23-.9s.08-1.15-.33-1.48c-9.35-9.52-56.29-56.62-60.97-57.93-4.76-1.48-126.86,7.22-140.72,8.29-.33,0-.82.25-.98.57-.25.33-.33.66-.25,1.15l12.96,69.5c-2.63,1.39-8.04,4.43-11,8.12l-.98-5.91c2.13-.9,3.86-1.72,4.51-2.3.57-.49,1.48-1.48.98-3.36-.57-2.63-3.2-6.32-6.97-9.52-2.38-18.87-7.3-51.2-8.37-54.81-.25-.82-.82-1.39-1.81-1.89-2.3-1.23-7.55-1.89-13.87-2.38-.08-.57-.25-.98-.33-1.39-.08-.25-.08-.49-.25-.66,4.43.33,8.29.9,11,1.81.82.25,2.38.57,3.69.9,2.05.49,3.53,2.05,3.86,4.1l7.8,53.75s6.56,5.99,6.89,8.37c.33,2.46.98,4.43.98,4.43l1.89-.9-12.8-68.76c-.25-1.15.57-2.13,1.72-2.3,15.59-1.23,113.89-9.03,137.11-8.29,0,0,10.17-5.91-124.64-1.81-11.49.08-24.62,1.39-36.84,2.79v-.98c18.95-2.05,39.96-3.53,56.37-3.61,6.97,0,15.02-.25,23.71-.33,32.99-.33,77.87-1.07,85.58,2.22Zm-134,36.51l-4.18-22.24c14.69-.98,31.18-2.3,47.67-3.28l-20.19,23.39-23.3,2.13Zm105.85,8.62c-3.53-.66-10.42-2.13-17.31-3.53-1.72-.49-2.79-.82-2.95-.82-.08,0-1.23-.25-3.04-.33-4.43-.9-8.45-1.72-11.16-2.3l-8.94-1.72c-.25-3.94-.57-18.38,8.04-27.49,7.88-.57,15.59-.98,22.57-1.48,1.97,5.74,10.17,29.95,12.8,37.66Zm-1.48-38.07c16.58-.9,28.14-1.48,29.62-1.15,3.36,1.23,36.19,33.56,57.6,55.06h-.08l-66.3-13.13-20.84-40.78Zm-152.21,9.68c-.49.49-.66.66-4.43,27.65-1.48,10.59-2.95,21.66-3.53,25.77-2.05-.66-3.86-1.39-5.66-2.05-.49-13.54,8.12-49.73,8.12-50.14.08-.33,0-.82-.25-1.15s-.66-.57-.98-.57c-.49,0-11.49-.33-17.31.9-5.5,1.23-16.74,27.08-20.76,36.84-.49-.25-.98-.33-1.48-.49,6.24-15.51,16.82-37.83,22.24-39.88,4.27-1.48,50.38-1.48,53.09,1.89.08.33.25,1.15.49,2.3-28.47-2.05-28.97-1.64-29.54-1.07Zm30.2,4.1c.82,4.18,1.72,10.5,2.79,17.48l-33.89,1.56c1.39-9.6,2.63-18.22,3.2-20.92h0c3.61.08,18.38,1.07,27.9,1.89Zm-66.55,21.09c5.42-11.73,10.83-21.5,12.96-21.91,4.1-.9,11.49-.9,14.93-.9-.82,3.61-2.79,12.39-4.6,21.91l-23.3.9Zm-.82,18.79c4.84,2.46,11.49,5.91,21.25,9.6-2.05.9-4.43,2.46-5.74,4.76-16.25-5.33-30.69-10.26-39.06-13.54l12.8-5.17c2.79.16,6.07,1.81,10.75,4.35Zm25.11,10.91c7.22,2.63,16.08,5.33,26.75,7.88.66,2.05,2.3,5.17,5.99,7.8,1.48.9,3.36,1.39,5.66,1.39,3.94,0,8.7-1.23,12.64-2.63l1.48,7.8c-16.99-4.76-39.3-11.49-59.33-17.97,1.97-2.54,5.66-3.77,6.81-4.27Zm34.22,13.37c-4.6-3.2-5.17-7.55-5.17-7.71v-.25c-.33-1.23.49-2.95.98-3.69l.25.08c0-.08,4.18-7.55,12.39-5.5,6.56,1.72,12.23,7.71,13.54,11.08.33.98.33,1.48.25,1.48-2.87,2.22-17.81,7.39-22.24,4.51Zm85.67-117.26c.57-.25.98-.33,1.56-.49,2.38.08,4.43,3.69,4.43,8.04s-2.05,8.04-4.51,8.04-4.51-3.69-4.51-8.04c0-3.53,1.23-6.48,3.04-7.55Zm-7.14,7.8c.08-.98.66-2.13,1.56-3.36-.25.98-.33,2.05-.33,3.2,0,2.05.33,3.86.9,5.42-.08-.08-.25-.25-.33-.33-1.23-1.56-2.05-3.53-1.81-4.92Zm-21.25-16.16c1.23-.33,2.63-.57,4.1-.82,6.32.08,11.49,6.32,11.49,14.03s-5.17,14.03-11.65,14.03-11.65-6.32-11.65-14.03c.08-6.15,3.2-11.24,7.71-13.21Zm-15.1,17.97c-.25-.33-.66-.49-.98-.49v-5.74c.66-.08,1.23-.57,1.23-1.39.08-.9,2.05-4.51,7.55-7.55-1.89,2.79-3.04,6.4-3.04,10.42,0,4.84,1.81,9.27,4.76,12.31l-5.01.25,1.39-2.63c.25-.33.25-.82.08-1.15-.08-.33-.33-.66-.66-.82-2.63-1.07-4.6-2.46-5.33-3.2Zm-21.5-8.21c.49-.08.9-.25,1.39-.33,2.38.08,4.43,3.61,4.43,7.8s-2.05,7.8-4.51,7.8-4.51-3.61-4.51-7.8c.08-3.36,1.39-6.4,3.2-7.47Zm-7.55,12.55c-1.39-1.48-2.13-3.53-1.89-4.84.25-1.48,2.05-3.36,4.27-5.01-.49,1.48-.82,3.04-.82,4.76,0,2.95.82,5.66,2.13,7.55-1.81-.49-3.04-1.64-3.69-2.46Zm89.93,10.5c-.66.9-1.23,1.81-1.48,2.63-9.03.08-18.3.25-27.32.33-8.62.08-16.74.25-23.63.25-15.59.08-36.92,1.56-56.37,3.61-.08-1.23-.25-2.3-.33-3.04l109.13-3.77Zm-127.19-25.19l16.49-.49v10.83l-16.49.49v-10.83Zm-3.77,20.68v-5.74l.66-1.39,22.81-.57.66.98v5.91l-24.12.82Zm3.53,9.19l-.08-.25,15.34-.57c.08.66.33,1.81.49,3.2-6.81.82-13.21,1.56-19.12,2.38,1.56-2.63,2.95-4.51,3.53-5.01q-.08.08-.16.25Zm-5.01,7.88c6.24-.9,13.29-1.81,20.76-2.71v.98c-3.53.49-6.97.9-10.26,1.39,0,0-4.76.25-10.83.9.16-.25.25-.33.33-.57Zm-1.64,3.86h0c1.48-.16,2.79-.16,4.1-.33,5.74-.08,11.98-.08,17.48.25,0,.66.25,1.23.49,1.81,0,.08.08.25.08.33-7.55-.49-16.16-.49-23.39-.33.49-.57.98-1.15,1.23-1.72Zm-54.89,44.31c6.89-.33,13.21-11.9,19.86-24.04,4.51-8.12,9.19-16.74,12.88-18.79,2.71-1.48,10.26-3.28,20.6-4.84-.08.25-.08.33-.25.57-8.04,1.15-17.07,2.95-20.19,6.24-6.24,6.32-19.86,33.56-25.11,38.48-1.23,1.23-2.63,4.18-2.63,4.18l-3.86-.9s-11.41.33-13.29.49l11.9,3.69,13.13-5.01s13.79-32.33,21.58-39.96c2.79-2.46,9.93-3.69,16.74-4.27-.08.08-.25.25-.33.25-.57.49-.98.9-1.39,1.39-5.74.25-9.85.57-10.75.82-8.29,3.04-21.91,36.51-24.29,42.5l-15.1,6.24c-8.78-3.69-16.16-5.42-22.57-6.24,8.7-.66,18.46-.82,23.06-.82Zm-13.7,50.79c.25,0,.82,0,2.05.49.82.33,1.81.9,2.95,1.72,0,1.23,0,4.1.25,7.8-4.92-7.14-5.25-9.44-5.25-10.01Zm2.95-2.13c-.9-.33-3.86-1.39-5.17.49-.98,1.23-.9,3.36,2.3,8.7-8.7-6.56-18.38-14.61-19.86-17.64-2.38-4.84-6.81-15.92-7.47-17.72,0-8.12.33-17.15.9-19.69,1.23,0,2.46,0,3.69.08,9.19.08,19.45.25,34.13,6.4-1.48,4.84-6.56,23.39-4.27,41.77-1.81-1.15-3.2-2.05-4.27-2.38Zm18.54,43.16c-4.1,0-7.3-9.93-7.3-22.24,0-2.79.25-5.42.49-7.88.98,1.15,2.05,2.3,3.04,3.36-1.15,2.95-.08,9.27.82,12.64.82,2.95,2.71,8.94,6.24,12.06-1.07,1.23-2.22,2.05-3.28,2.05Zm4.6-4.76c-1.15-1.15-2.13-2.79-3.2-5.09-2.3-5.33-3.04-11.32-2.95-14.2,2.38,3.04,4.43,6.07,5.5,8.78.33.9.82,1.72.98,2.46.49.98.82,1.89,1.15,2.71-.33,1.97-.9,3.77-1.48,5.33Zm1.15-13.46h0c-2.38-4.6-6.65-9.85-11-14.44-.33-.33-.66-.66-.98-.98-1.72-1.72-3.36-3.28-5.01-4.6-3.2-18.3,2.05-37.83,3.69-43.24,8.04,3.36,23.39,8.7,40.78,14.36-1.81,7.55-3.28,35.78-.25,63.35-2.05-1.23-3.36-2.3-4.1-2.63-6.56-4.35-19.78-10.67-23.14-11.82Zm24.37,27.16c0-.25,0-.49-.08-.66.08.08.25.08.33.25-.08-.08-.08.16-.25.41Zm-10.91-10.5c-7.8-3.2-8.45-4.76-11.65-12.31-.08-.25-.25-.33-.25-.57,5.09,2.13,14.77,6.97,20.19,10.42.82.57,2.95,1.81,5.99,3.86.33,2.71.82,5.5,1.23,8.12-7.96-5.25-13.62-8.86-15.51-9.52Zm16.66-64.74c20.35,6.56,43.08,13.46,60.23,18.22-2.3,9.03-10.09,44.31-5.42,81.56-20.02-12.96-42.91-27.82-54.48-35.28-3.61-27.98-1.89-57.52-.33-64.5Zm2.05,76.39c-.57-2.71-.9-5.5-1.39-8.37,12.39,8.04,35.12,22.73,54.57,35.28.57,3.53,1.15,7.14,1.89,10.75-19.12-13.29-40.29-27.73-55.06-37.66Zm58.42,40.04c-.9-3.69-1.56-7.3-2.13-11.08,15.92,10.26,28.88,18.79,31.26,20.19,1.81,4.51,5.91,12.06,8.7,17.15-7.22-5.01-21.66-15.02-37.83-26.26Zm45.87-1.48c-3.86,9.35-5.66,18.3-5.33,27-3.69-6.89-9.03-16.74-9.68-19.69-.66-2.79-1.48-15.84,6.24-22.57,4.76-4.18,11.73-5.42,21.01-3.69-5.99,4.1-10.09,13.79-12.23,18.95Zm48.66,64.91c-16.08,0-29.05-18.87-29.05-42.01,0-14.44,5.09-27.24,12.8-34.79,2.3,1.15,4.43,2.46,6.56,3.86l9.03,8.04c-.33,0-.82-.08-1.15-.08-8.94,0-16.16,11.32-16.16,25.19s7.22,25.19,16.16,25.19c2.3,0,4.51-.82,6.4-2.13-7.14-1.89-12.55-11.49-12.55-23.06,0-10.42,4.27-19.12,10.42-22.24l8.78,7.8c6.89,8.12,12.39,16.58,16.58,24.21-3.61,17.31-14.69,30.03-27.82,30.03Zm28.64-34.38c-1.39-2.3-2.71-4.6-4.27-6.97-.57-.9-1.23-1.89-1.89-2.95-9.68-14.2-25.44-31.67-47.02-39.3-15.84-5.5-27.49-5.09-34.71,1.23-7.88,6.97-7.88,19.12-7.3,23.96-5.33-3.53-17.07-11.08-30.61-19.86-5.17-37.5,2.79-73.69,5.09-82.79,4.27,1.15,8.12,2.13,11.41,3.04,29.7,7.47,157.46,48.58,185.28,80.91h-.08c.08.08.25.25.33.33,2.63,3.04,4.18,5.99,4.84,8.78-3.53,7.55-3.36,26.01-3.28,40.86v6.65c0,.57.08.98.25,1.48-1.39-.08-2.79-.25-4.51-.33-6.32-.33-11.32,2.63-13.7,8.12-1.23,2.95-1.23,9.85-.49,16.49l-47.76-14.36c-.98-3.2-4.92-13.54-11.57-25.27Zm60.39,51.2c-11.65-2.71-32.74-7.71-45.95-21.66l45.29,13.54c.49,3.2,1.15,6.07,1.81,8.37-.41-.16-.82-.16-1.15-.25Zm1.97-26.67c1.89-4.43,5.91-6.81,11-6.4,5.74.33,9.85.82,9.85.82h0c.57,0,1.15.08,1.72.08,3.53,0,8.29-.9,13.54-2.05,7.8-1.72,27.24-11,36.6-15.51l1.89-.9c3.53-1.72,5.01-4.76,6.24-8.29l17.31-6.4c0,1.72,0,4.76-.33,11.41-.33,5.17-1.56,10.17-3.28,14.44-6.24,2.46-62.69,25.11-70.98,26.91-8.37,1.72-23.96-6.4-24.04-6.56l-.08.25c-.33-3.53,0-6.32.57-7.8Zm60.88,23.71c-2.05.98-24.53,12.23-38.07,13.87-14.11,1.72-18.3-4.43-20.19-9.27h0c-1.56-3.69-2.79-11.16-3.28-17.72,3.53,1.81,13.7,6.4,21.58,6.4,1.15,0,2.13-.08,3.04-.33,8.04-1.56,56.04-20.76,68.93-26.01-2.79,6.07-6.24,10.5-7.88,11.73-3.45,2.71-22.24,19.53-24.12,21.33Zm40.86-13.21c-3.94,5.17-13.46,16.99-17.07,18.79-2.79,1.48-13.29-2.05-20.43-4.84,5.01-4.43,19.53-17.48,22.4-19.69,3.53-2.63,12.8-16.08,13.79-32,.66-11.16.33-12.8.08-14.03-.08-.33-.08-.57-.08-1.23,0-1.72,4.76-4.6,6.32-4.6,1.15,0,7.14.25,7.47,5.09.33,5.42-.25,31.43-.9,34.71-.49,2.22-7.38,12.14-11.57,17.81Zm82.79-47.1c-3.28,2.05-58.75,35.69-77.3,44.31,3.53-4.84,8.29-11.98,8.7-14.44.33-1.39.57-6.24.82-11.98l91.41-43.08-23.63,25.19Zm26.83-.25c-1.89.33-13.46.25-22.81,0l37.99-40.45c.25-.25.33-.57.33-.9v-18.22c0-.33,0-.82.33-.9,1.15-.57,4.84.9,7.8,2.71.08.08.25.25.49.33v20.76h0v.08l.33,4.18c-8.78,11.82-22.57,30.52-24.45,32.41Zm24.12-60.8c-.25-.08-.57-.33-.9-.49,2.3-1.89,6.89-5.99,8.62-10.17.33-.9.82-1.89,1.23-3.04-.25.98-.33,1.89-.57,2.71-.66,3.36-5.66,8.53-8.37,11Zm9.19,19.04c0,.49,0,.9-.08,1.23-.82.57-3.36,1.48-6.4,2.13v-16.74c2.38,1.89,5.17,4.18,6.32,4.84.41.74.41,3.61.16,8.53Z"/><path class="cls-2" d="m243.24,96.22l-20.76,24.04-24.04,2.3-4.27-22.89c14.93-1.07,32.17-2.3,49.07-3.45Z"/><path class="cls-29" d="m304.94,130.93c-3.53-.66-10.42-2.13-17.31-3.53-1.72-.49-2.79-.82-2.95-.82-.08,0-1.23-.25-3.04-.33-4.43-.9-8.45-1.72-11.16-2.3l-8.94-1.72c-.25-3.94-.57-18.38,8.04-27.49,7.88-.57,15.59-.98,22.57-1.48,1.97,5.74,10.17,29.95,12.8,37.66Z"/><path class="cls-5" d="m391.02,147.1h0l-67.2-13.21-21.01-41.27c16.82-.9,28.47-1.48,29.95-1.15,3.61,1.23,36.68,33.81,58.26,55.63Z"/><ellipse class="cls-63" cx="234.62" cy="58.4" rx="5.74" ry="7.47"/><path class="cls-17" d="m77.65,196.33l.25-4.43-2.79-1.23c-.08.08,2.54,5.5,2.54,5.66Z"/><path class="cls-15" d="m224.04,285.61s7.22,15.26,6.97,14.2c-2.05-13.21,5.74-33.56,14.44-38.65-23.63.57-21.42,24.45-21.42,24.45Z"/><path class="cls-37" d="m293.62,292.91c-.9-.66-1.89-.98-2.95-.98-4.18,0-7.47,5.17-7.47,11.65s3.36,11.65,7.47,11.65c.98,0,2.05-.33,2.95-.98-3.28-.9-5.74-5.33-5.74-10.59,0-5.42,2.46-9.85,5.74-10.75Z"/><path class="cls-42" d="m143.95,198.13c.66-2.38-.08-3.94-2.38-4.6l-3.36-.98-4.18,14.69,2.3.66,1.56-5.5,1.15.33c2.3.66,3.86-.33,4.51-2.63l.41-1.97Zm-2.3-.82l-.66,2.13c-.33.98-.82,1.23-1.48.98l-1.15-.33,1.39-5.01,1.15.33c.74.41.98.9.74,1.89Z"/><path class="cls-28" d="m145.18,210.69c2.3.66,3.86-.33,4.51-2.71l2.13-7.55c.66-2.38-.25-4.1-2.46-4.6-2.3-.66-3.86.33-4.51,2.71l-2.13,7.55c-.57,2.22.25,3.86,2.46,4.6Zm-.08-4.02l2.3-7.88c.33-.98.9-1.39,1.56-1.15.66.25,1.15.82.82,1.81l-2.3,7.88c-.33.98-.9,1.39-1.56,1.15-.82-.16-1.15-.66-.82-1.81Z"/><polygon class="cls-57" points="156.92 211.43 153.06 210.44 156.75 197.89 154.46 197.23 150.27 211.92 156.34 213.56 156.92 211.43"/><polygon class="cls-47" points="157.41 213.97 161.43 199.28 163.81 199.94 159.63 214.46 157.41 213.97"/><path class="cls-46" d="m164.55,216.1c2.3.66,3.86-.33,4.51-2.71l.57-1.89-2.22-.66-.57,2.13c-.33.98-.9,1.23-1.56,1.15-.66-.25-1.15-.66-.82-1.81l2.3-7.88c.33-.98.9-1.39,1.56-1.15.66.25,1.15.82.82,1.81l-.49,1.56,2.13.57.49-1.48c.66-2.38-.08-4.1-2.38-4.6-2.3-.66-3.86.33-4.51,2.71l-2.13,7.55c-.82,2.38,0,4.02,2.3,4.68Z"/><polygon class="cls-53" points="179.15 206.5 179.89 204.45 173.57 202.65 169.39 217.34 175.71 219.14 176.28 217.01 172.34 215.86 173.57 211.59 176.69 212.49 177.27 210.44 174.15 209.54 175.22 205.36 179.15 206.5"/></g><g><path class="cls-7" d="m223.46,117.47c1.72-.08,3.28,0,4.51.33s2.3.98,3.04,1.81c.82.9,1.23,1.89,1.48,3.28s.08,2.95-.25,4.6c-.33,1.81-.82,3.36-1.15,4.84s-.82,2.95-1.15,4.43c-.49,1.72-.9,3.04-1.39,4.18-.57.98-1.15,1.89-1.89,2.63s-1.56,1.15-2.63,1.48c-.98.33-2.13.57-3.53.82-4.43.66-8.94,1.48-13.29,2.3,2.13-10.09,4.43-20.02,6.56-29.79,3.28-.33,6.4-.66,9.68-.9Zm.49,8.12c.08-.49,0-.9-.25-1.15-.25-.33-.57-.49-.98-.33-.57,0-.98.08-1.56.08-1.23,5.42-2.46,11-3.69,16.49.57-.08.98-.08,1.56-.25.49-.08.9-.33,1.23-.66.49-.33.66-.82.82-1.39.82-4.35,1.81-8.62,2.87-12.8Z"/><path class="cls-7" d="m258.83,114.6c-.57,2.13-1.15,4.27-1.72,6.4-4.27.33-8.45.82-12.8,1.15-.33,1.15-.66,2.3-.9,3.53,3.36-.33,6.89-.66,10.26-.98-.57,2.13-.98,4.27-1.56,6.4-3.36.33-6.81.82-10.17,1.23-.33,1.15-.57,2.38-.9,3.53,4.27-.57,8.45-1.15,12.8-1.56-.57,2.38-1.15,4.6-1.72,6.97-7.14.98-14.11,2.05-21.25,3.2,2.3-9.52,4.51-18.87,6.81-27.98,6.97-.82,14.03-1.39,21.17-1.89Z"/><path class="cls-7" d="m274.01,113.54c1.15-.08,2.05,0,2.95.25s1.56.66,2.13,1.15c.57.57.98,1.15,1.15,1.89.25.82.25,1.56-.08,2.38-.49,1.56-.82,3.28-1.23,5.01-.33,1.39-1.15,2.71-2.38,4.1-.66.66-1.39,1.39-2.13,1.81-.82.49-1.56.82-2.38,1.15-.9.33-1.72.57-2.71.66-.9.08-1.89.33-2.95.49-.57.08-1.15.08-1.72.25-.66,2.38-1.23,4.84-1.89,7.22-2.95.33-5.74.82-8.7,1.15,2.3-8.94,4.43-17.72,6.65-26.42,4.6-.49,8.86-.74,13.29-1.07Zm-3.12,7.38c.08-.49.08-.82-.25-.98-.25-.25-.57-.33-1.15-.33s-.98.08-1.56.08c-.57,2.05-1.15,4.1-1.72,6.24.57,0,.98-.08,1.56-.08.49,0,.9-.25,1.39-.57s.66-.66.82-1.15c.49-1.15.74-2.13.9-3.2Z"/><path class="cls-7" d="m294.11,112.14c1.72-.08,3.28,0,4.51.33s2.3.9,3.04,1.56c.82.66,1.23,1.72,1.48,2.79.25,1.15.08,2.46-.25,3.94-.33,1.48-.82,2.79-1.15,4.1-.33,1.23-.82,2.46-1.15,3.69-.49,1.48-.9,2.63-1.48,3.53s-1.15,1.56-1.89,2.13c-.82.57-1.56.9-2.63,1.15-.98.25-2.13.49-3.53.57-4.43.57-8.94.98-13.29,1.56,2.13-8.45,4.43-16.74,6.56-24.94,3.28.08,6.56-.16,9.76-.41Zm.41,6.89c.08-.33,0-.66-.25-.98-.25-.25-.57-.33-.98-.33-.57,0-.98.08-1.56.08-1.23,4.51-2.46,9.19-3.69,13.79.57,0,.98-.08,1.56-.08.49,0,.9-.25,1.23-.57.49-.33.66-.66.82-1.15.98-3.61,1.97-7.22,2.87-10.75Z"/><path class="cls-7" d="m329.48,110.09c-.57,1.81-1.15,3.69-1.72,5.5-4.27.33-8.45.57-12.8.9-.33.98-.66,1.89-.9,2.95,3.36-.25,6.89-.57,10.26-.82-.57,1.81-.98,3.61-1.56,5.42-3.36.33-6.81.57-10.17.9-.33.98-.57,1.89-.9,2.95,4.27-.49,8.45-.82,12.8-1.15-.57,1.89-1.15,3.94-1.72,5.99-7.14.66-14.11,1.48-21.25,2.3,2.3-8.04,4.51-15.92,6.81-23.71,7.06-.41,14.03-.9,21.17-1.23Z"/><path class="cls-7" d="m344.74,109.19c1.15-.08,2.05,0,2.95.25s1.56.57,2.13.98.98.98,1.15,1.72c.25.66.25,1.39-.08,2.13-.49,1.48-.82,2.79-1.23,4.27-.33,1.15-1.15,2.3-2.38,3.53-.66.57-1.39,1.15-2.13,1.48-.82.33-1.56.66-2.38.9-.9.25-1.72.49-2.71.57-.9.08-1.89.25-2.95.33-.57,0-1.15.08-1.72.08-.66,2.05-1.23,4.1-1.89,6.24-2.95.25-5.74.57-8.7.9,2.3-7.55,4.43-15.1,6.65-22.57,4.43-.33,8.86-.57,13.29-.82Zm-3.12,6.48c.08-.33.08-.66-.25-.9-.25-.25-.66-.33-1.15-.33-.57,0-.98.08-1.56.08-.57,1.81-1.15,3.53-1.72,5.33.57,0,.98-.08,1.56-.08.49,0,.9-.25,1.39-.49.49-.33.66-.57.82-.98.33-.98.57-1.72.9-2.63Z"/></g></g></svg>