<?xml version="1.0" encoding="UTF-8"?><svg id="Layer_1" xmlns="http://www.w3.org/2000/svg" xmlns:xlink="http://www.w3.org/1999/xlink" viewBox="0 0 609.4 370.6"><defs><style>.cls-1{fill:url(#Dégradé_sans_nom_206-25);}.cls-2{fill:url(#Dégradé_sans_nom_206-47);}.cls-3{fill:url(#Dégradé_sans_nom_206-59);}.cls-4{fill:#fff;}.cls-5{fill:url(#Dégradé_sans_nom_206);}.cls-6{fill:url(#Dégradé_sans_nom_206-26);}.cls-7{fill:url(#Dégradé_sans_nom_206-19);}.cls-8{fill:url(#Dégradé_sans_nom_206-40);}.cls-9{fill:url(#Dégradé_sans_nom_206-30);}.cls-10{fill:url(#Dégradé_sans_nom_206-49);}.cls-11{fill:url(#Dégradé_sans_nom_206-5);}.cls-12{fill:url(#Dégradé_sans_nom_206-60);}.cls-13{fill:url(#Dégradé_sans_nom_206-44);}.cls-14{fill:url(#Dégradé_sans_nom_206-18);}.cls-15{fill:url(#Dégradé_sans_nom_206-10);}.cls-16{fill:url(#Dégradé_sans_nom_206-21);}.cls-17{fill:url(#Dégradé_sans_nom_206-45);}.cls-18{fill:url(#Dégradé_sans_nom_206-48);}.cls-19{fill:url(#Dégradé_sans_nom_206-56);}.cls-20{fill:url(#Dégradé_sans_nom_206-23);}.cls-21{fill:url(#Dégradé_sans_nom_206-14);}.cls-22{fill:url(#Dégradé_sans_nom_206-3);}.cls-23{fill:url(#Dégradé_sans_nom_206-7);}.cls-24{fill:url(#Dégradé_sans_nom_206-16);}.cls-25{fill:url(#Dégradé_sans_nom_206-6);}.cls-26{fill:url(#Dégradé_sans_nom_206-34);}.cls-27{fill:url(#Dégradé_sans_nom_206-52);}.cls-28{fill:url(#Dégradé_sans_nom_206-4);}.cls-29{fill:url(#Dégradé_sans_nom_206-51);}.cls-30{fill:url(#Dégradé_sans_nom_206-33);}.cls-31{fill:url(#Dégradé_sans_nom_206-8);}.cls-32{fill:url(#Dégradé_sans_nom_206-15);}.cls-33{fill:url(#Dégradé_sans_nom_206-39);}.cls-34{fill:url(#Dégradé_sans_nom_206-27);}.cls-35{fill:url(#Dégradé_sans_nom_206-36);}.cls-36{fill:url(#Dégradé_sans_nom_206-28);}.cls-37{fill:url(#Dégradé_sans_nom_206-35);}.cls-38{fill:url(#Dégradé_sans_nom_206-9);}.cls-39{fill:url(#Dégradé_sans_nom_206-38);}.cls-40{fill:url(#Dégradé_sans_nom_206-22);}.cls-41{fill:url(#Dégradé_sans_nom_206-2);}.cls-42{fill:url(#Dégradé_sans_nom_206-54);}.cls-43{fill:url(#Dégradé_sans_nom_206-58);}.cls-44{fill:url(#Dégradé_sans_nom_206-46);}.cls-45{fill:url(#Dégradé_sans_nom_206-20);}.cls-46{fill:url(#Dégradé_sans_nom_206-32);}.cls-47{fill:url(#Dégradé_sans_nom_206-55);}.cls-48{fill:url(#Dégradé_sans_nom_206-29);}.cls-49{fill:url(#Dégradé_sans_nom_206-41);}.cls-50{fill:url(#Dégradé_sans_nom_206-11);}.cls-51{fill:url(#Dégradé_sans_nom_206-43);}.cls-52{fill:url(#Dégradé_sans_nom_206-13);}.cls-53{fill:url(#Dégradé_sans_nom_206-53);}.cls-54{fill:url(#Dégradé_sans_nom_206-61);}.cls-55{fill:url(#Dégradé_sans_nom_206-64);}.cls-56{fill:url(#Dégradé_sans_nom_206-12);}.cls-57{fill:url(#Dégradé_sans_nom_206-42);}.cls-58{fill:url(#Dégradé_sans_nom_206-37);}.cls-59{fill:url(#Dégradé_sans_nom_206-62);}.cls-60{fill:url(#Dégradé_sans_nom_206-50);}.cls-61{fill:url(#Dégradé_sans_nom_206-57);}.cls-62{fill:url(#Dégradé_sans_nom_206-31);}.cls-63{fill:url(#Dégradé_sans_nom_206-63);}.cls-64{fill:url(#Dégradé_sans_nom_206-24);}.cls-65{fill:url(#Dégradé_sans_nom_206-17);}</style><linearGradient id="Dégradé_sans_nom_206" x1="254.77" y1="-42.71" x2="416.27" y2="378.39" gradientUnits="userSpaceOnUse"><stop offset="0" stop-color="#a001c0"/><stop offset=".2" stop-color="#4041fe"/><stop offset=".4" stop-color="#007a41"/><stop offset=".41" stop-color="#15853c"/><stop offset=".47" stop-color="#67b027"/><stop offset=".51" stop-color="#a8d216"/><stop offset=".55" stop-color="#d7ea0a"/><stop offset=".58" stop-color="#f4f903"/><stop offset=".6" stop-color="#ff0"/><stop offset=".63" stop-color="#fff400"/><stop offset=".68" stop-color="#fed702"/><stop offset=".75" stop-color="#fca903"/><stop offset=".8" stop-color="#fb7f05"/><stop offset="1" stop-color="#f00001"/></linearGradient><linearGradient id="Dégradé_sans_nom_206-2" x1="194.15" y1="-19.46" x2="355.65" y2="401.64" xlink:href="#Dégradé_sans_nom_206"/><linearGradient id="Dégradé_sans_nom_206-3" x1="447.11" y1="-116.48" x2="608.62" y2="304.62" xlink:href="#Dégradé_sans_nom_206"/><linearGradient id="Dégradé_sans_nom_206-4" x1="466.14" y1="-123.78" x2="627.65" y2="297.32" xlink:href="#Dégradé_sans_nom_206"/><linearGradient id="Dégradé_sans_nom_206-5" x1="451.99" y1="-118.35" x2="613.5" y2="302.75" xlink:href="#Dégradé_sans_nom_206"/><linearGradient id="Dégradé_sans_nom_206-6" x1="455.53" y1="-119.71" x2="617.03" y2="301.39" xlink:href="#Dégradé_sans_nom_206"/><linearGradient id="Dégradé_sans_nom_206-7" x1="440.52" y1="-113.95" x2="602.02" y2="307.15" xlink:href="#Dégradé_sans_nom_206"/><linearGradient id="Dégradé_sans_nom_206-8" x1="243.29" y1="-38.31" x2="404.8" y2="382.79" xlink:href="#Dégradé_sans_nom_206"/><linearGradient id="Dégradé_sans_nom_206-9" x1="347.89" y1="-78.43" x2="509.4" y2="342.67" xlink:href="#Dégradé_sans_nom_206"/><linearGradient id="Dégradé_sans_nom_206-10" x1="305.2" y1="-62.06" x2="466.71" y2="359.04" xlink:href="#Dégradé_sans_nom_206"/><linearGradient id="Dégradé_sans_nom_206-11" x1="105.41" y1="14.57" x2="266.92" y2="435.67" xlink:href="#Dégradé_sans_nom_206"/><linearGradient id="Dégradé_sans_nom_206-12" x1="172.22" y1="-11.05" x2="333.72" y2="410.05" xlink:href="#Dégradé_sans_nom_206"/><linearGradient id="Dégradé_sans_nom_206-13" x1="45.26" y1="37.64" x2="206.77" y2="458.74" xlink:href="#Dégradé_sans_nom_206"/><linearGradient id="Dégradé_sans_nom_206-14" x1="78.19" y1="25.01" x2="239.69" y2="446.11" xlink:href="#Dégradé_sans_nom_206"/><linearGradient id="Dégradé_sans_nom_206-15" x1="55.2" y1="33.83" x2="216.7" y2="454.93" xlink:href="#Dégradé_sans_nom_206"/><linearGradient id="Dégradé_sans_nom_206-16" x1="28.42" y1="44.1" x2="189.92" y2="465.2" xlink:href="#Dégradé_sans_nom_206"/><linearGradient id="Dégradé_sans_nom_206-17" x1="166.27" y1="-8.77" x2="327.77" y2="412.33" xlink:href="#Dégradé_sans_nom_206"/><linearGradient id="Dégradé_sans_nom_206-18" x1="6.46" y1="52.52" x2="167.96" y2="473.62" xlink:href="#Dégradé_sans_nom_206"/><linearGradient id="Dégradé_sans_nom_206-19" x1="86.02" y1="22.01" x2="247.52" y2="443.11" xlink:href="#Dégradé_sans_nom_206"/><linearGradient id="Dégradé_sans_nom_206-20" x1="119.54" y1="9.15" x2="281.05" y2="430.25" xlink:href="#Dégradé_sans_nom_206"/><linearGradient id="Dégradé_sans_nom_206-21" x1="233.85" y1="-34.69" x2="395.35" y2="386.41" xlink:href="#Dégradé_sans_nom_206"/><linearGradient id="Dégradé_sans_nom_206-22" x1="36.14" y1="41.14" x2="197.65" y2="462.24" xlink:href="#Dégradé_sans_nom_206"/><linearGradient id="Dégradé_sans_nom_206-23" x1="80.63" y1="24.07" x2="242.14" y2="445.17" xlink:href="#Dégradé_sans_nom_206"/><linearGradient id="Dégradé_sans_nom_206-24" x1="317.54" y1="-66.79" x2="479.05" y2="354.31" xlink:href="#Dégradé_sans_nom_206"/><linearGradient id="Dégradé_sans_nom_206-25" x1="430.65" y1="-110.17" x2="592.16" y2="310.93" xlink:href="#Dégradé_sans_nom_206"/><linearGradient id="Dégradé_sans_nom_206-26" x1="189.49" y1="-17.68" x2="351" y2="403.42" xlink:href="#Dégradé_sans_nom_206"/><linearGradient id="Dégradé_sans_nom_206-27" x1="193.65" y1="-19.27" x2="355.16" y2="401.83" xlink:href="#Dégradé_sans_nom_206"/><linearGradient id="Dégradé_sans_nom_206-28" x1="184.08" y1="-15.6" x2="345.58" y2="405.5" xlink:href="#Dégradé_sans_nom_206"/><linearGradient id="Dégradé_sans_nom_206-29" x1="230.59" y1="-33.44" x2="392.1" y2="387.66" xlink:href="#Dégradé_sans_nom_206"/><linearGradient id="Dégradé_sans_nom_206-30" x1="115.65" y1="10.64" x2="277.16" y2="431.74" xlink:href="#Dégradé_sans_nom_206"/><linearGradient id="Dégradé_sans_nom_206-31" x1="150.92" y1="-2.89" x2="312.43" y2="418.22" xlink:href="#Dégradé_sans_nom_206"/><linearGradient id="Dégradé_sans_nom_206-32" x1="208.23" y1="-24.86" x2="369.73" y2="396.24" xlink:href="#Dégradé_sans_nom_206"/><linearGradient id="Dégradé_sans_nom_206-33" x1="142.86" y1=".21" x2="304.36" y2="421.31" xlink:href="#Dégradé_sans_nom_206"/><linearGradient id="Dégradé_sans_nom_206-34" x1="142.37" y1=".39" x2="303.87" y2="421.5" xlink:href="#Dégradé_sans_nom_206"/><linearGradient id="Dégradé_sans_nom_206-35" x1="367.19" y1="-85.83" x2="528.69" y2="335.27" xlink:href="#Dégradé_sans_nom_206"/><linearGradient id="Dégradé_sans_nom_206-36" x1="277.88" y1="-51.58" x2="439.38" y2="369.52" xlink:href="#Dégradé_sans_nom_206"/><linearGradient id="Dégradé_sans_nom_206-37" x1="258.67" y1="-44.21" x2="420.17" y2="376.89" xlink:href="#Dégradé_sans_nom_206"/><linearGradient id="Dégradé_sans_nom_206-38" x1="285.63" y1="-54.55" x2="447.14" y2="366.55" xlink:href="#Dégradé_sans_nom_206"/><linearGradient id="Dégradé_sans_nom_206-39" x1="290.75" y1="-56.51" x2="452.25" y2="364.59" xlink:href="#Dégradé_sans_nom_206"/><linearGradient id="Dégradé_sans_nom_206-40" x1="299.02" y1="-59.68" x2="460.52" y2="361.42" xlink:href="#Dégradé_sans_nom_206"/><linearGradient id="Dégradé_sans_nom_206-41" x1="263.87" y1="-46.2" x2="425.37" y2="374.9" xlink:href="#Dégradé_sans_nom_206"/><linearGradient id="Dégradé_sans_nom_206-42" x1="254.61" y1="-42.65" x2="416.12" y2="378.45" xlink:href="#Dégradé_sans_nom_206"/><linearGradient id="Dégradé_sans_nom_206-43" x1="436.18" y1="-112.29" x2="597.69" y2="308.81" xlink:href="#Dégradé_sans_nom_206"/><linearGradient id="Dégradé_sans_nom_206-44" x1="366.52" y1="-85.57" x2="528.02" y2="335.53" xlink:href="#Dégradé_sans_nom_206"/><linearGradient id="Dégradé_sans_nom_206-45" x1="301.37" y1="-60.59" x2="462.87" y2="360.51" xlink:href="#Dégradé_sans_nom_206"/><linearGradient id="Dégradé_sans_nom_206-46" x1="320.69" y1="-68" x2="482.2" y2="353.1" xlink:href="#Dégradé_sans_nom_206"/><linearGradient id="Dégradé_sans_nom_206-47" x1="427.85" y1="-109.09" x2="589.35" y2="312.01" xlink:href="#Dégradé_sans_nom_206"/><linearGradient id="Dégradé_sans_nom_206-48" x1="265.79" y1="-46.94" x2="427.29" y2="374.16" xlink:href="#Dégradé_sans_nom_206"/><linearGradient id="Dégradé_sans_nom_206-49" x1="384.79" y1="-92.58" x2="546.29" y2="328.52" xlink:href="#Dégradé_sans_nom_206"/><linearGradient id="Dégradé_sans_nom_206-50" x1="269.55" y1="-48.38" x2="431.05" y2="372.72" xlink:href="#Dégradé_sans_nom_206"/><linearGradient id="Dégradé_sans_nom_206-51" x1="63.19" y1="30.76" x2="224.69" y2="451.86" xlink:href="#Dégradé_sans_nom_206"/><linearGradient id="Dégradé_sans_nom_206-52" x1="363.39" y1="-84.37" x2="524.89" y2="336.73" xlink:href="#Dégradé_sans_nom_206"/><linearGradient id="Dégradé_sans_nom_206-53" x1="233.07" y1="-34.39" x2="394.58" y2="386.71" xlink:href="#Dégradé_sans_nom_206"/><linearGradient id="Dégradé_sans_nom_206-54" x1="103.82" y1="15.18" x2="265.32" y2="436.28" xlink:href="#Dégradé_sans_nom_206"/><linearGradient id="Dégradé_sans_nom_206-55" x1="186.46" y1="-16.52" x2="347.97" y2="404.58" xlink:href="#Dégradé_sans_nom_206"/><linearGradient id="Dégradé_sans_nom_206-56" x1="4.31" y1="53.34" x2="165.82" y2="474.44" xlink:href="#Dégradé_sans_nom_206"/><linearGradient id="Dégradé_sans_nom_206-57" x1="114.73" y1="10.99" x2="276.24" y2="432.1" xlink:href="#Dégradé_sans_nom_206"/><linearGradient id="Dégradé_sans_nom_206-58" x1="152.57" y1="-3.52" x2="314.07" y2="417.58" xlink:href="#Dégradé_sans_nom_206"/><linearGradient id="Dégradé_sans_nom_206-59" x1="55.39" y1="33.75" x2="216.9" y2="454.85" xlink:href="#Dégradé_sans_nom_206"/><linearGradient id="Dégradé_sans_nom_206-60" x1="61.99" y1="31.22" x2="223.5" y2="452.32" xlink:href="#Dégradé_sans_nom_206"/><linearGradient id="Dégradé_sans_nom_206-61" x1="66.86" y1="29.36" x2="228.36" y2="450.46" xlink:href="#Dégradé_sans_nom_206"/><linearGradient id="Dégradé_sans_nom_206-62" x1="72.36" y1="27.24" x2="233.87" y2="448.35" xlink:href="#Dégradé_sans_nom_206"/><linearGradient id="Dégradé_sans_nom_206-63" x1="77.1" y1="25.43" x2="238.6" y2="446.53" xlink:href="#Dégradé_sans_nom_206"/><linearGradient id="Dégradé_sans_nom_206-64" x1="83.2" y1="23.09" x2="244.71" y2="444.19" xlink:href="#Dégradé_sans_nom_206"/></defs><path class="cls-4" d="m275.13,370.6c-12.9,0-25.7-3-36.8-8.6-24.4-12.2-41.3-36.7-47.9-69.2-14.6-10.3-60.9-42.8-90.1-62.3-.1.1-.2.2-.5.2-4.8,3-10.2,4.3-16.2,4.3-5.1,0-10.4-1-16.4-3-16.5-5.5-27.1-22.2-30.7-48.4-23.6-17.5-26.2-22.8-27.4-25.4-2.5-5.1-6.4-14.9-8-18.9-.8-1.9-1.1-3.9-1.1-5.7,0-22.4,1.5-26.8,4.6-30.7,4.3-5.4,10-6.8,31.7-7.8,6.8-.3,13.2-.5,17.2-.6,2.7-3.4,6.9-11.1,9.4-15.5,6.2-11.2,11.4-20.8,19.2-25.2,2.3-1.2,5.5-2.7,13-4.3v-2.1c0-4.1,1.6-7.8,4.3-10.5.2-1.4.7-2.6,1.2-3.9l1-2.3c.3-.7.7-1.4,1.1-2.1v-5.2c0-8.3,6.4-14.8,14.7-15,0,0,19.5-.5,19.7-.5,3.9,0,7.8,1.6,10.6,4.4,1,1,1.8,2.1,2.5,3.4,2.7-1.8,5.4-3,7.7-3.9,1.7-.7,3.5-1.1,5.3-1.4.7-.1,1.4-.1,2.1-.1h.2c3.7,0,7.1,1,10.2,3,3.9-4.3,10.1-8.9,20.1-11.7C198.83.6,201.73,0,204.73,0,212.73,0,220.03,3.6,225.13,9.5c1.4-.5,2.8-.7,4.3-.8h1.1c2.1,0,4.1.3,6,1,.1-.1.2-.2.3-.5,2.7-2.8,6.4-4.5,10.4-4.6l18-.7h.5c3.9,0,7.6,1.5,10.4,4.1.1.1.2.2.3.3,2.7,2.8,4.3,6.4,4.4,10.3l.2,5.5c2.1,2.5,3.3,5.5,3.4,8.8v.3c1.2,1.8,1.9,3.9,2.3,6.2h0c13.7.7,19.1,1.8,22.7,3.4,7.8,3.3,20.4,15.7,47.3,43.1,0,0,4.4,4.5,5.7,5.7.6-.3,1.1-.6,1.7-.9,1.8-1.2,5.7-3.9,11.5-3.9,3.9,0,7.7,1.2,11,3.7,5.2,3.9,8.6,10.8,9.9,17.5l.8.1c44.6,4.6,137.1,14.1,201.3,45,.5.2.9.5,1.4.8.1,0,.2.1.2.1,9.4,5.9,9.7,18.6,8.8,30.3-.7,8-2.1,16.1-2.4,17.2-.3,1.1-.9,3.5-3,6.9,4.8,5.7,4.3,13.8,3.9,20.1v.9c-.1,8-5.2,12.3-10.5,14.8-.3.6-.7,1.1-1,1.7-.1.1-.1.2-.2.3-25.5,35-26.9,35.8-30,37.5-3.5,1.9-7.2,2.3-15.7,2.3-3.7,0-8.5-.1-14.1-.2-17.7,10.8-59.7,35.9-76.5,43.5-13.5,17.2-18.8,19.8-20.8,20.8-2.7,1.4-5.7,2.1-9.3,2.1-6.1,0-13.8-2.3-20.6-4.8-9.2,4.3-25.2,11.1-37.4,12.6-2.3.2-4.4.5-6.6.5-11.5,0-20.8-4.3-26.8-12.2-3.9-.9-8.5-2.1-13.5-3.7-6.6,12.3-17.5,20.8-31.7,24-5.5,1.4-11.5,2-17.7,2Z"/><g><path class="cls-5" d="m367.07,327.3c-4.8.3-17.1-5.4-17.1-5.4l2.8,13.2,1.4-6.3,9.9,2.3,2.8,8.8,3.4-8.8c1.4-.2,43.4-17.6,43.4-17.6l-8.1,13.8,25.7-21,2.6-4.3c.2.1-62,25-66.8,25.3Z"/><path class="cls-41" d="m307.47,315.7s9.9,7.3,23.5,11.7l-3.2-2.3,14.4,1.7-34.7-11.1Z"/><path class="cls-22" d="m565.77,188l-3.3,1.2s2.1,3.9,2.5,6.1c0-.1-.5-5.3.8-7.3Z"/><path class="cls-28" d="m581.47,197.7l6.6-4.5,3.2-11.5s-10.2.6-12.1,3c2.3,1.6,2.3,13,2.3,13Zm4.5-6.1l.8-.1-.2-.8,3-6.9-2.4,8.3-4.5,3,3.3-3.5Z"/><path class="cls-11" d="m574.97,205.1c.2-2.5.7-4.5.7-7.3,0-6.1-1.1-11-2.5-11-1.3,0-2.5,4.8-2.5,11,0,3.2.3,6.1.8,8,.2,0,1.5-.9,3.5-.7Zm-2.7-11c2.3-.3,1.5,7.6,1.5,7.6-.6-.1-1.5.3-1.5.3-.5-1.4,0-5.6,0-7.9Z"/><polygon class="cls-25" points="585.57 216.7 585.57 220.3 585.67 229.6 589.77 228.4 589.57 219.8 585.57 216.7"/><path class="cls-23" d="m565.57,202.1l-.7,5.4s-1.2,5.2-2.3,6.8l6-3c-.1.1-3-5.5-3-9.2Z"/><path class="cls-31" d="m436.17,189.3s9.6-5,13.9-7.1c-57.1-21.8-172.8-49.5-174.9-49.7-1.9-.2-62.3,8-84.8,11.5l70.3,21.3-79.1-19.7c-4.8,1.5-7.3,4.8-7.3,4.8,102.8,26.6,151.2,51.1,172.9,65.7l51-14.1-45.3,18.1c8.1,6.1,10.6,9.7,10.6,9.7l65.5-22.1c-10.8-7.6-47.2-28.4-149-53.7,0,0,124.2,26.4,157.9,50.8l35.5-11.9c-4.6-2.7-11.2-5.7-19-8.8l-18.2,5.2Z"/><path class="cls-38" d="m389.27,131.9l-33.6-6.4c-20.1,1.2-57,3.6-57,3.6,99.5,21.6,147.5,38,170.2,47.8l26.2-4.8-22.2,6.4c12.2,5.5,15.1,8.6,15.1,8.6,5.5-2.4,21.5-7,37.8-11.7-8.5-5.7-36.2-19.1-123.9-36.6,0,0,95.9,11.7,128.8,35.3,19.9-5.4,38.9-10.4,38.9-10.4-3.4-1.7-7.2-3.3-11.4-4.8l-20,3.7s10.4-3.2,16.2-5.1c-60-21.1-184.7-33-186.3-33-.3,0-3.4.2-8,.5l29.2,6.9Z"/><path class="cls-15" d="m378.97,119.2c.2,0,.3-3,.3-3l-3-.7s3-.8,3.2-1.8-2.6-6.8-3.5-7.9c-.9-1.2-3.2,1.7-3.2,1.7-.9,1.5-.2,3-.2,3-1-.3-1.8-2.6-1.8-2.6,0,0-5,2.8-6,3.9,0,0,4.5,3.9,6.1,5.4,1.8,1.4,7.9,2,8.1,2Z"/><path class="cls-50" d="m150.77,133.8c-.6,1.2,1.1,5.2,1.1,5.2,0,0-4.2,1.8-6.3,0s-2.1-5.2-2.1-5.2c0,0-2.1-.1-3.6,0,0,0,.6,3,.8,4.2.2,1.4,2.3,4.5,8.8,4.6,6.6.1,15-4.6,15-4.6v-1.1c-5.2-4.9-13.7-3.1-13.7-3.1Z"/><path class="cls-56" d="m188.97,30.4c.2-3.7,1.1-5.2,1.1-5.2l-3,4.4-1.6.6v3.6h1.1l-.2-1.6s1.7,3.7,3.6,5.4c.1-.1-1.2-3.5-1-7.2Z"/><polygon class="cls-52" points="65.67 119.9 91.37 128.8 73.37 120.1 75.07 116.2 65.67 119.9"/><polygon class="cls-21" points="109.27 132.6 107.27 133.5 135.77 142.5 134.27 140.6 109.27 132.6"/><polygon class="cls-32" points="104.67 210.3 104.67 212.3 155.67 247.3 155.47 245.8 104.67 210.3"/><path class="cls-24" d="m81.87,195.5c-3.2-.9-4.6-2.8-4.6-2.8.5,1.4,1.2,4.3,4.2,5.4.5.2,1.4.6,2.4,1.1l1.2-1.4c0-.1.5,1.4.8,2.5,5.2,3,12.6,7.6,12.6,7.6l-.2-3c-.1-.1-13.1-8.5-16.4-9.4Z"/><path class="cls-65" d="m358.47,292c-.1-4.6-.2-8.8-.2-12.6l-41-23.5,41,15.1c0-2.8.1-5.3.2-7.6h0c-18-35.4-97.6-66.9-97.6-66.9,45.1,11.4,90.3,45.3,99,52.1.8-3.4,1.6-3.4,1.6-3.4-49.1-50.5-194.2-84.5-194.2-84.5-.6,1.7-1,3.5-1.5,5.2l49.3,14.9-50.5-9.3c-1.7,7.9-2.6,15.9-3,23.7l13.1,4.6-13.3.3c-.6,15.1.6,28.4.9,35.7l15.6,10.4s2.6-29.3,22.4-33.6c0,0-17.9,8.8-19,35.8l4.5,3c5.7-33.9,33-30.3,49.2-24.9,25.2,8.8,42.5,32.3,52.8,50.6h0l31.5,13.8-27.6-6.3c4.8,9.8,7.2,16.8,7.2,16.8l40.6,12.8s-.8-4.8-.9-6.6c-.8-10.1,11.1-15.6,19.9-15.6Z"/><path class="cls-14" d="m43.37,147.5c1.9,0,3.5.2,4.6.3.2-6.3,1.1-12.8,2.1-17.6l-14.9-6.4,15.6,2.5c.6-2.8,1-4.6,1-4.6-10.6-5.7-32.1-6.1-32.1-6.1l-1,15.3,13.8,5.7-13.7-3c1.1,2.6,6.8,14.9,7.5,16.8.7,2.1,12.7,11.6,12.7,11.6,0,0-.5-1,.8-5.1,1.2-4.2,8.5,0,8.5,0-.2-1.9-.2-3.9-.2-6h0s-6.2-3.3-7.5,0c-.1,0-.9-3.4,2.8-3.4Z"/><polygon class="cls-7" points="162.57 245.8 164.07 253 192.67 272.6 187.97 262.7 162.57 245.8"/><path class="cls-45" d="m121.27,27.8l1.8.3c-.6.2-1,1-1,1.9s.5,1.7,1.1,1.9l-1.4.1v2.3l11.4.1v-1.8l-2.5-.5c.8-.2,1.5-1.2,1.5-2.4s-.6-2.1-1.2-2.3l2.3-.6v-1.2l-12,.3v1.9h0Zm6.6.4l2.3-.6c.6.5.9,1.1.9,2.1s-.5,1.8-1.1,2.1l-1.6-.3.6-.1s-.3-.2-.5-1c-.1-.8.3-1.7.3-1.7l-.9-.5h0Zm-4.1,0l1.9.3-.9.6s.3.8.2,1.4c-.1.7-.5.8-.5.8l1,.2-1.7.2c-.6-.3-.9-1-.9-1.8.1-.6.4-1.3.9-1.7Z"/><path class="cls-16" d="m251.77,26.1c0,.9.5,1.7,1.1,1.9l-1.4.1v2.7l11.4-.3v-1.8l-2.5-.5c.8-.2,1.5-1.2,1.5-2.4,0-1.1-.6-2.1-1.2-2.3l2.3-.6v-1.2l-12,.3v1.7l1.8.3c-.5.5-1,1.3-1,2.1Zm5.9-1.6l2.3-.6c.6.5.9,1.1.9,2.1s-.5,1.8-1.1,2.1l-1.6-.3.6-.1s-.3-.2-.5-1,.3-1.7.3-1.7l-.9-.5h0Zm-4.1-.1l1.9.3-.9.6s.3.8.2,1.4c-.1.7-.5.8-.5.8l1,.2-1.7.2c-.6-.3-.9-1-.9-1.8.1-.7.3-1.3.9-1.7Z"/><path class="cls-40" d="m58.47,150.9h0s1.4-20.9,3.9-23.1c.3.2,1,.5,1.9.7l28.9,9.6.9,5.4-22.4-5.4,23.1,9.8v-3.2c.6-4.8,1.4-8.5,1.4-8.5l-32.7-10.6-3.9-1.6-1.8,8.6c-1.5,7-1.9,14.2-2.1,16.7h0v4.2c9.7,2.6,18,17.2,18,17.2-2.5-9.4-10.9-16.6-15.2-19.8Z"/><path class="cls-20" d="m152.57,157.7l3.2,9c-.2-4.4,2.1-10.6,2.1-10.6l-54.8-16.1-1.2,8.8,3.7-5.1,47,14Z"/><path class="cls-64" d="m488.77,201.9s-1-3.5-3.9-3.5l-118.2,40.7,2.5,3.2c12.2-5.2,33.2-10.2,51.8-17.1,29.9-11,67.8-23.3,67.8-23.3Z"/><path class="cls-1" d="m586.57,170.4c1.6,0,3.5-.6,3.5-.6l-.7-1.2-1.8-.7s-25.3,5.5-45.9,12.3c-11.5,3.7-46.1,14.6-46.1,14.6,0,0,1.2,2.6,2.1,4.2-.2.1,78.4-26.8,88.9-28.6Z"/><path class="cls-6" d="m209.77,37.4c-.1.1-2.1,1.9-2.1,1.7l1,3.9s3.7-2.3,5.5-7l-3-1.7c-.3,1.2-.9,2.3-1.4,3.1Z"/><path class="cls-34" d="m210.07,25c.3.5.6,1,.8,1.5l3.3-1.4c-1.1-3.2-3.2-6.3-6.4-7l-1.8,3.9c.1-.3,3,1.4,4.1,3Z"/><path class="cls-36" d="m206.77,43.1l-.6-3.5c-4.4,0-8.1-1.8-8.6-9.2-.5-7.3,6.1-8.5,6.1-8.5l1.9-3.9s-10.8,1.4-11.4,11.2c.4,16.4,12.6,13.9,12.6,13.9Z"/><polygon class="cls-48" points="265.67 36.9 267.37 39.5 266.97 34.9 248.67 35.5 248.67 40.2 250.57 37.1 265.67 36.9"/><polygon class="cls-9" points="117.87 39.7 117.57 44.7 119.17 41.6 136.67 41.1 138.07 44 137.67 39 117.87 39.7"/><path class="cls-62" d="m165.37,41.5c2.1,0,3.9-3,3.9-6.6s-1.7-6.6-3.9-6.6-3.9,3-3.9,6.6c.1,3.6,1.8,6.6,3.9,6.6Z"/><path class="cls-46" d="m230.37,39.5c2.1,0,3.9-3,3.9-6.6s-1.7-6.6-3.9-6.6-3.9,3-3.9,6.6,1.8,6.6,3.9,6.6Z"/><path class="cls-30" d="m157.37,34.2l-2.1.7.3,2.3,1.9.2c-.2-1.4-.1-3.2-.1-3.2Z"/><path class="cls-26" d="m157.77,38.4l-1.7-.1.5.9c0,.1,1.6,1.8,2.4,2.3,0,0-1.2-2.5-1.2-3.1Z"/><path class="cls-37" d="m541.47,195.8l-116,38.7s3.3,9.6,4.6,13.3c-.3.1-.7.2-.9.3l-6.6-12.1,2.7,14.6h0c.1.9.8,2.4,1,2.8.3.6,1.4.7,3.5-1.7.7-.8,6.6-2.7,14.8-5.2,3.5-1,7.3-2.1,8.7-2.6,15.9-4.8,35.5-10.2,43.1-12.9,11.9-6.6,49.3-24.9,49.3-24.9l-3.3-.9h-.1l-.8-7.2,1.6-.5c.1,2.6,2.3,5.7,2.3,5.7-1.1-2.6.2-9.3.2-9.3l-4.1,1.9Zm-106.7,42.7l56.4-17.1.2,1.7-50.9,15-5,1.7c-.2-.3-.5-.9-.7-1.3Zm3,3.8v1.4c-.3-.6-.7-1.2-1.1-1.9l55.1-15.6.6,3.3c-10.2,2.5-51.9,12.4-54.6,12.8Zm59.1-27l-1.4,12.2-1.2.2-3.4-8.3h0l-.1-.3.1.3-51.5,15.3-5.5,1.9c-.3-.6-.6-.9-.6-.9l54.4-19,5.7-.2-.4,1.2,1.6,7.3.8-10.8,44.8-15.6v1.4l-43.2,15.9v2.7l43.3-16.7v1.6l-43.3,16.3-.1-4.5Zm1.8,11.4c-.7.3-1.2.7-1.7.9v-5.1l43.3-17.4v.2c-4.6,1.9-32.5,16.6-41.6,21.4Z"/><path class="cls-35" d="m390.97,246.1s1.4,2.3,1.5,3.6c0,0-.1-3.5.3-4.5l-1.8.9Z"/><path class="cls-58" d="m383.27,253.6l-.7-3.5-5.7,3.9c-1.8,1.4-3.3,3.7-3.4,6-.5,7.1-1.1,21-1.1,21,0,0,13.3-1.3,10.9-27.4Zm-9.1,22.8s.1-4.5.3-8.8c.1-3.7.2-7.2.3-7.2.3-.3.7-.6,1-.7,1.6-.2,3.9,2.1,4.3,6.9.5,7.1-5.9,9.8-5.9,9.8Z"/><path class="cls-39" d="m406.97,240.8l-6.6,2.1c-1.6,2.6-2.7,6.8-2.7,11.5,0,7.9,1.8,14.2,5.5,14.2s7.8-6.4,7.8-14.2c-.1-5.9-1.6-11.5-4-13.6Zm-6.3,24.7c-3-5.7-.6-16.2,0-17.3,0,0,2.1-.1,3.5,2.3.7,1.1,1.4,2.8,1.5,5.3.7,7.8-5,9.7-5,9.7Z"/><path class="cls-33" d="m408.97,271.9c7.3-1.5,9.9-14.6,9.9-14.6l-2.6.6c-.5,10.1-7.9,14.1-7.3,14Z"/><path class="cls-8" d="m418.87,250.6s-1.4-8.1-5-10.4c0,0,3,5.3,3,11l2-.6Z"/><path class="cls-49" d="m386.77,276.2c.6-1.1.8-1.8.8-1.8-.2.6-.7,1.2-.8,1.8Z"/><path class="cls-57" d="m386.77,276.2c-1.6,3.2-5.7,9.4-14.9,11.5v1.1c-.1.1,9.8-1.5,14.9-12.6Z"/><path class="cls-51" d="m558.77,210.8c1-2.3,1.8-5.7,1.8-9.5,0-4.4-1.6-8.4-2.8-10.5l-3.9,1.1c-.9,2.3-1.5,5.5-1.5,9.3,0,1.9.1,3.6.5,5.3,2.5-.2,5.9,4.3,5.9,4.3Zm-4.7-15.3s3.6-1.1,4.2,4.2c.6,5.3-1.4,7.8-1.4,7.8-.6-.9-3-1.9-3-1.9-.8-3.4.2-10.1.2-10.1Z"/><path class="cls-13" d="m461.47,257.3s19.9-5.9,38.3-12.6c32.6-12,34.6-17.4,34.6-17.4l-5.7,1,22.7-12.9s-.8-.3-1.1-.6-.8-.1-3.9.9c-3,1-46,25.5-49.5,27-3.4,1.5-35.5,10.3-35.5,10.3,0,0-14.8,3.9-22,6.6-7.2,2.7-6.9,7.8-6.9,7.8l10.8-3.7s-.2-5.7,8.9-7.6c7.7-1.6,9.3,1.2,9.3,1.2Z"/><path class="cls-17" d="m453.27,265.5c-1.8.6-2.3,3.9-2.3,3.9,0,0,1.2-2.3,2.1-2.1.7.1.1,18.3-.1,25.4-1.7,1.4-6.9,1.9-6.9,1.9,0,0,3.2,2.5,6,2.3-3.9,6.9-21.5,29.5-21.5,29.5l5.7-14.6-3.6,3.3-15.6,14.4s5.5,4.2,14.4,4.2c1.9,0,27.2-33.1,27.2-37.2s1-30.7.9-33c0,.1-4.5,1.5-6.3,2Z"/><polygon class="cls-44" points="449.17 264.6 451.17 265.1 448.27 263.3 448.27 264.2 448.67 272.8 449.17 264.6"/><path class="cls-2" d="m576.97,213.7c-1.1.7-.2,5.7-.2,5.7,0,0,.7-4.6,1.1-4.5.5.1-.1,17.2-.1,17.2l-3-1.9,1.4,4.1-20,28.8,2.8-9.3-3-1-13.2,14.4h13.8l23.5-30.9.7-23.3c-.1.1-2.7,0-3.8.7Z"/><path class="cls-18" d="m370.67,318.1c5.5-1.6,68.9-26.2,68.9-26.2,0,0,3.9-13.3,2.6-20.9l-13.5,4.6s-1.1,5.3,3.9,9.4l-7.2-2.1s-29.5,17.5-43.7,18.9-16.2.6-16.2.6c-5.3-1.6-13-1.2-14.9,3,0,0,2.1,2.3,8.1,3.3,0,0-7.5-.1-9,0l-.2,4.5c0-.2,15.8,6.6,21.2,4.9Z"/><path class="cls-10" d="m568.27,227.5s.3-3.5.2-3.5-7,3.6-9.5,1.7h0l-16.2,12.6,14.2-14.6c-1.6-1.7-2.6-3.5-2.6-3.5-5.4,2.4-19,16.4-23.9,18.1-3.9,1.4-65.1,25.9-65.1,25.9v15.7l91.2-41,11.7-11.4Z"/><path class="cls-60" d="m394.67,272.4s-1,8-8.1,14.4c4.4-2.6,19.3-9.8,19.3-9.8,0,0-10,.8-11.2-4.6Z"/><path class="cls-29" d="m150.97,195.8c-2.1,7.7-2.1,27.8-2.1,27.8l-41.6-24-3.7-10.2v10.5l49.4,31.3-1-8.1-1-27.3Z"/><polygon class="cls-27" points="467.17 289.3 467.17 300.3 459.97 308.2 462.37 307.8 472.07 298.9 472.87 291.4 533.77 259.7 530.27 267.3 545.87 250.7 467.17 289.3"/><g><path class="cls-53" d="m592.57,216.9c-.9-.5-4.8-3.6-7.8-6.1v-.1h-.1c-.1,0-.1-.1-.2-.2,2.5-2.4,7.9-7.9,8.8-12,.1-.3,5.4-28.9-.6-32.8,0,0-.1,0-.1-.1-62.2-29.9-153.1-39.2-196.8-43.7-4.8-.5-9.3-.9-13.1-1.4,0-1.2.2-3.3.6-5.2.7-3.7-1.7-11.3-5-13.7-3-2.1-5.3-.5-6.6.6-.3.2-.6.3-.8.6-3.2,1.6-8.1,4.4-9.6,7.5-4.2-4.1-9.2-9.3-14.4-14.6-17.4-17.7-36.9-37.5-42.9-40.1-3.2-1.4-11.5-2.1-22.6-2.5-.9-1.6-3.9-3-8.6-4.6,0-.1.1-.3.1-.5v-6.3c0-.3-.1-.8-.5-1-.2-.2-.6-.5-1-.3h-.7l-.2-6.3c0-.3-.1-.6-.3-.9l-1-1.2c-.2-.3-.7-.5-1.1-.5h-.7l-.5-12.2c0-.3-.2-.6-.5-1-.2-.2-.7-.3-1-.3l-18,.7c-.8,0-1.4.6-1.4,1.5l.5,12.2h-.1c-.6,0-1,.3-1.2.9l-.9,2.1c-.1.2-.1.3-.1.6l.2,5.5-9.3.3c1.5-2.1,2.4-4.8,2.4-8.1,0-6.1-3.2-10.8-7.2-10.8h-.2c-.9,0-1.7.2-2.5.7-4.2,1.8-8.3,6.2-8.7,9.9-.2,2.3.7,5,2.6,7.1.6.6,1.2,1.2,1.7,1.6l-8.4.3c2.5-3,4.1-7.1,4.1-11.7,0-9.3-6.4-16.7-14.4-16.7-1.7,0-3.3.3-4.8.9-11.2,2.8-15.5,8.7-16.6,11.5h-.1c-.8,0-1.4.6-1.4,1.4v8.4c0,.8.7,1.4,1.4,1.4h.8c1.2,1.1,3,2.1,4.3,2.8l-1.4,2.8-17.5.4c2.1-1.8,3.6-5.2,3.6-9.2,0-6-3.2-10.6-7.3-10.6h-.3c-.8,0-1.5.2-2.1.6-4.6,1.6-10.6,5.9-11.2,9.9-.3,2.3.6,5,2.6,7.1,1,1.1,2.1,1.9,3.4,2.6l-15.5.6v-6.2c0-.2-.1-.6-.2-.8l-1.2-2.1c-.2-.5-.7-.7-1.2-.7h-1.2v-12c0-.3-.1-.7-.5-1-.2-.2-.7-.5-1-.3l-19.2.5c-.8,0-1.4.7-1.4,1.4v12h-1.2c-.6,0-1,.3-1.2.8l-1.2,2.5c-.1.2-.1.3-.1.6v6.2l-2.7.1c-.8,0-1.4.7-1.4,1.4v6.1c0,.3.1.8.5,1,.2.2.6.3,1,.3l5.5-.2c-1.1,1.5-2.4,3.4-3.4,5.5-11.4,1.8-20.1,3.7-23.4,5.5-4.4,2.5-9,11-13.9,19.9-5.8,10.5-12.3,22.4-17.5,22.6-.3,0-39.7.6-41.9,3.3-1.5,1.8-1.7,14.7-1.7,22.2,0,.2,0,.3.1.6.2.6,5.1,12.8,7.7,18.2,2.7,5.5,24.5,21.5,27,23.3.2.2.6.2.9.2,1.4,14.8,6,37.9,22.2,43.3,4.5,1.5,8.6,2.3,12.1,2.3s6.6-.8,9-2.3c3.2-1.9,4.6-4.8,5.4-6.6,31.8,20.9,102.7,70.7,104.8,72.2,0,.3.1.6.1,1,5.2,30.5,20,53.1,41.5,63.9,9.4,4.8,20.1,7.1,30.7,7.1,5.1,0,10.2-.6,15.1-1.7,14.1-3.3,23.5-13.3,26.7-28.4,10.2,4.6,20.4,7.1,27.5,8.7,1,.2,2,.5,3,.7,3.2,7.1,9,10.6,18,10.6,1.6,0,3.2-.1,4.8-.3,13.5-1.6,34.7-12,38.4-13.9,4.3,1.8,19.3,7.9,24.2,5.4,4.8-2.4,16.1-17,18.3-19.9,12.8-4.3,75.6-42.4,81.5-46,11.5.3,25.3.7,26.9-.2,1.6-.9,16.7-21.5,25.7-33.6.2-.2.3-.6.2-.9l-.2-3.5c9.2-2.1,9.2-3.7,9.2-4.5,0-.3,0-.8.1-1.5-.3-7.2-.6-9.8-2.2-10.6Zm-16.5-33.3c3.7-1.1,6.1-1.9,6.7-2,4.8-1,8.6-1.2,9.8-.9-.8,5.3-3.3,12.1-5.1,16.5-1.9,4.4-7.7,9-9,9.9,0,0-.1,0-.1-.1.7-2.6,1.2-5.9,1.2-9.2.1-5.8-1.2-11.5-3.5-14.2Zm-112.3,80.6c-.1-1.2-.3-2.3-.8-3,5.7-1.7,22.4-6.6,29.6-9.9,2.1-.9,5.7-2.3,9.8-3.9,12.6-4.8,30-11.3,34.9-16.8,6-6.7,17.7-12.4,17.9-12.6v-.1c2.5,3,4.8,5.7,7.6,5.4,3-.2,6.4-1.7,8.4-2.6v6.7l-10.8,11.5-96.5,45.5c-.1-8,0-17.1-.1-20.2Zm-19.4.6l-15.8,5.9c1.8-4.8,3.9-9.9,11.1-12.4,6.9-2.6,17.7-5.4,28.2-8.3,12.1-3.2,23.5-6.2,29.1-8.8,4.1-1.9,12.4-6.6,21.3-11.4,12.3-6.8,29.1-16.1,31.5-16.2.9,0,2,1.1,3.3,2.4-2.6,1.4-12.4,6.7-18,12.9-4.4,5-22.2,11.6-33.8,16.1-4.2,1.6-7.7,3-9.9,3.9-7.7,3.4-26.6,8.9-30.5,10.1-2.1-1.5-4.8-2.3-7.5-2.3-2.5,0-9.2,3.6-9.2,7.5.2.2.2.4.2.6Zm119.9-63c0-5.5-1.4-10.4-3.6-13.2,3-1,5.8-1.9,8.3-2.7-1.4,3-2.1,7.6-2.1,12,0,5.2,1,11,3.3,13.9-1.6,1.1-4.8,3.3-7.2,3.9-.3.1-1.2-.3-1.9-1.1,2-2.8,3.2-7.7,3.2-12.8Zm-5.4,10.9c-.2-.2-.3-.3-.6-.6-2.1-2.1-4.4-4.5-6.9-5.3-.3-1.7-.5-3.4-.5-5.2,0-4.3,1-8.4,2.6-10.8,1.5-.5,2.8-.9,4.2-1.4,1.9,1.5,3.9,5.9,3.9,12.2,0,4.5-1.1,8.7-2.7,11.1Zm10.7-14.8c0-8,2.4-13,3.6-13s3.6,4.8,3.6,13c0,3-.3,6-1,8.5-1.2-.2-2.4-.2-3.3.3-.5.2-1,.6-1.4,1.5-.8-2.4-1.5-6.1-1.5-10.3Zm23.2-24.3c.1,1.2.1,2.7.1,4.3-3-.6-8.3.3-10.8.9-5.3,1.1-153.7,50.1-185.1,60.7-2.5.8-4.3,1.5-5.1,1.7-4.3,1.5-18.6,6.9-21.8,12.4-2.1,3.7-2.3,19.4-2.3,38.1,0,1,.5,1.9,1.4,2.5,1.1.8,2.8,1.1,4.6,1.1,1.5,0,3.2-.2,4.5-.7,3-.9,39.7-16.5,42.8-20.4.8-1,1.5-2.8,2.4-5.1,2.1-5.3,5.3-13.5,12.4-15.6,3-.9,8.5-2.4,14.9-4.2,16.5-4.4,39.1-10.5,47.7-15,11.9-6.3,49.1-24.3,50.5-24.9,2-.9,4.8,1.9,7.2,4.5,2.6,2.7,4.8,5,7.2,4.3,2.4-.8,5.4-2.6,7.2-3.9v3.3c-1,.6-5.4,2.6-8.6,2.8-1.2.1-3.5-2.4-5.2-4.4-2.4-2.8-4.6-5.4-7.2-5.4s-14.1,6.2-32.9,16.6c-8.8,4.8-17.2,9.5-21.3,11.3-5.4,2.5-17.2,5.7-28.6,8.6-10.6,2.8-21.6,5.7-28.6,8.4-8.9,3.4-11.3,10.2-13.2,15.6-1.4,3.8-2.5,7.1-5.5,8.6l-1.9.9c-9.3,4.4-28.6,13.7-35.9,15.3-5.4,1.2-14.4,3-16.7,1.2-.2-.2-.5-.5-.5-1.2v-6.6c-.1-13.7-.2-32.2,2.8-39.4h.7c0-.3-.1-.6-.1-1,3.2-4.6,26.2-11.4,43.1-16.4,10.8-3.2,20.9-6.1,26-8.4,8.4-3.7,44.6-15.5,73.9-24.9,19.5-6.3,36.5-11.7,41.5-13.7,19.8-7.3,36.4-12.2,40.4-11.9Zm-44.2,33.3c-.2.1-.5.1-.7.2-1.6.8-38.8,18.8-50.8,25.1-8.4,4.4-30.7,10.4-47,14.8-6.4,1.7-12,3.2-15,4.2-8.4,2.6-11.9,11.4-14.2,17.3-.8,1.9-1.5,3.6-2.1,4.4-2.3,2.8-36.9,18.1-41.4,19.5-2.4.8-4.8.6-6.1.2,12.4-.9,22.4-14,22.4-30,0-1,0-2.1-.1-3.2,1.5,9.4,7.2,16.5,14.2,16.5,8,0,14.6-9.5,14.6-21.1,0-7.3-2.8-14.4-7-18.4,33.6-11.2,95.9-31.9,134.3-44.2-1.2,2.7-1.7,6.1-1.7,9.6.1,1.8.3,3.4.6,5.1Zm-160.3,53.6c0-4.8-.9-9.6-2.6-13.7.5-.2.8-.3,1.2-.6,2.7,4.8,4.1,10.4,4.1,16.2,0,14.8-9.2,26.9-20.4,27.2v-2.7c9.7-.3,17.7-12.2,17.7-26.4Zm-17.7,23.8c0-12,.3-26.3,1.9-29.1,1.2-2.1,5.1-4.6,10.6-7.2,1.5,3.7,2.4,8.1,2.4,12.6-.1,12.7-6.7,23.1-14.9,23.7Zm22.7-28.1c-.7-3.9-1.9-7.7-3.8-11,1.2-.5,2.3-.8,3.4-1.2.5-.2,1.4-.5,2.4-.8-1.2,3.3-1.9,7.3-1.9,11.7-.1.3-.2.8-.1,1.3Zm19.9-3.5c0,9.3-4.8,17.4-10.8,18.2-3.7-3-6.3-9.2-6.3-16.2,0-5.1,1-9.7,2.8-12.9,2.7-.9,6.1-2.1,10.1-3.4,2.7,3.8,4.2,9.2,4.2,14.3Zm-1.5-15.1c.2-.1.5-.1.7-.2,4.3,3,7.3,10.2,7.3,17.4,0,10.1-5.3,18.3-11.9,18.3-.7,0-1.4-.1-2.1-.2,5.9-2.7,10.1-10.8,10.1-20,.2-5.7-1.4-11.2-4.1-15.3Zm-48.1,1.4c1.4-.5,3.5-1.2,6.7-2.4,44.4-16.2,83.4-29.8,116.7-40.7,3.6,2.8,5.1,5,5.5,6.6-25.3,8.1-49.4,16.2-56.3,19.2-4.8,2.3-14.9,5.2-25.5,8.3-21.3,6.2-37.5,11.2-43.1,15.8-.8-2.3-2.2-4.5-4-6.8Zm227.8-70.8c.6.3.9,1.4,1.1,2.7-8.5,0-32.9,9-40.7,12.1-5,1.9-21.9,7.3-41.4,13.7-5,1.6-10.2,3.3-15.3,5-.6-2.1-2.3-4.4-5-6.8,42.1-13.8,74.9-23.1,98.1-28.1,1,.5,2.1.9,3.2,1.4Zm-227.8-56.6v.2c0-1.1,3.2-3.9,8.5-6.6.3-.2.8-.5,1.2-.8,1.5-1,2.3-1.4,3.4-.6,2.1,1.6,4.4,7.9,3.9,11-.3,2.1-.6,4.1-.6,5.4-5.2-.6-8.7-1.2-9.5-1.7-1.2-.7-3.9-3.3-7.6-6.9h.7Zm-86.9-58.6c-8.6-.2-18.6-.2-28.8-.1.6-1,1.6-2.1,3.2-2.7l15.4-.6c4.1,1,7.9,2.4,10.2,3.4Zm-12.4-32.3l.3,10.8-15.3.6-.3-10.8,15.3-.6Zm-16.8,14.2l20.1-.7.3.3.2,5.8-20.8.8-.2-5.3.4-.9Zm55.4,23.3c5.7,2.4,25.8,22.9,41.9,39.5,11.9,12.1,21.2,21.6,24,23.4,1.9,1.1,9,1.9,26.6,3.7,41.8,4.3,127,13.1,188.4,40.1-23.4,5.2-55.6,14.6-96.5,28-5-3.6-12.4-7.5-22.5-11.7l-4.3,1.2c11.2,4.6,18.6,8.5,23.5,11.7-23.7,7.8-50.3,17-79.7,27.5-11.3,4.1-23.1,8.3-35.1,12.6-3.6,1.4-6.4,2.4-7.7,2.8-31.8-35.1-165.9-76.1-185.7-81.1-3.3-.8-7-1.8-11.2-2.9,1.2-3.6,8-8,12.5-10.2,5.5-1.1,11.2-2.1,16.8-3.2l64.1-9.5c5.2-.6,10.3-1.2,15.3-1.7l-.1.3c.6.1,55.7,12.6,110.2,28.2,32.4,9.3,55.4,17,71.6,23.4l1.8-.8,2.5-.5c-18.3-7.3-43.5-15.7-75.2-24.8-43.3-12.4-87.1-22.8-103.6-26.7,47.7-4.8,82.4-5.7,83-5.8.6,0,1-.3,1.2-.9s.1-1.1-.3-1.5c-9.4-9.5-56.2-56.5-60.9-57.9-4.8-1.5-126.7,7.2-140.6,8.3-.3,0-.8.2-1,.6-.2.3-.3.6-.2,1.1l13,69.4c-2.6,1.4-8,4.4-11,8.1l-1-5.9c2.1-.9,3.9-1.7,4.5-2.3.6-.5,1.5-1.5,1-3.4-.6-2.6-3.2-6.3-7-9.5-2.4-18.9-7.3-51.1-8.4-54.7-.2-.8-.8-1.4-1.8-1.9-2.3-1.2-7.5-1.9-13.9-2.4-.1-.6-.2-1-.3-1.4-.1-.2-.1-.5-.2-.7,4.4.3,8.3.9,11,1.8.8.2,2.4.6,3.7.9,2,.5,3.5,2,3.9,4.1l7.8,53.7s6.6,6,6.9,8.4c.3,2.5,1,4.4,1,4.4l1.9-.9-12.8-68.6c-.2-1.1.6-2.1,1.7-2.3,15.6-1.2,113.8-9,137-8.3,0,0,10.2-5.9-124.5-1.8-11.5.1-24.6,1.4-36.9,2.8v-1c19-2.1,39.9-3.5,56.3-3.6,7,0,15-.2,23.7-.3,33.1-.4,77.9-1.1,85.6,2.2Zm-183.9-3.4l15.3-.6c.1.6.3,1.8.5,3.2-6.8.8-13.2,1.6-19.1,2.4,1.4-2.4,2.7-4.2,3.4-4.8l-.1-.2Zm2.3,20c-.5.5-.7.7-4.4,27.7-1.5,10.6-2.9,21.7-3.5,25.8-2-.7-3.8-1.4-5.7-2.1-.5-13.5,8.1-49.6,8.1-50.1.1-.3,0-.8-.2-1.1-.2-.3-.7-.6-1-.6-.5,0-11.5-.3-17.3.9-5.5,1.2-16.7,27.1-20.8,36.8-.5-.2-1-.3-1.5-.5,6.2-15.5,16.8-37.8,22.2-39.8,4.3-1.5,50.3-1.5,53,1.9.1.3.2,1.1.5,2.3-28.3-2.2-28.8-1.8-29.4-1.2Zm30.1,4.1c.8,4.2,1.7,10.5,2.8,17.5l-33.9,1.6c1.4-9.6,2.6-18.2,3.2-20.9,3.7,0,18.4,1,27.9,1.8Zm-66.5,21.1c5.4-11.7,10.8-21.5,13-21.9,4.1-.9,11.5-.9,14.9-.9-.8,3.6-2.8,12.4-4.6,21.9l-23.3.9Zm-.8,18.8c4.8,2.5,11.5,5.9,21.2,9.6-2,.9-4.4,2.5-5.7,4.8-16.2-5.3-30.7-10.2-39-13.5l12.8-5.2c2.8.1,6,1.8,10.7,4.3Zm25.1,10.9c7.2,2.6,16.1,5.3,26.8,7.9.7,2.1,2.3,5.2,6,7.8,1.5.9,3.4,1.4,5.7,1.4,3.9,0,8.7-1.2,12.6-2.6l1.5,7.8c-17-4.8-39.2-11.5-59.2-18,1.8-2.6,5.5-3.8,6.6-4.3Zm34.2,13.3c-4.6-3.2-5.2-7.5-5.2-7.7v-.2c-.3-1.2.5-2.9,1-3.7l.2.1c0-.1,4.2-7.6,12.4-5.5,6.6,1.7,12.2,7.7,13.5,11.1.3,1,.3,1.5.2,1.5-2.8,2.1-17.7,7.3-22.1,4.4ZM228.97,25.9c.6-.2,1-.3,1.6-.5,2.4.1,4.4,3.7,4.4,8s-2,8-4.5,8-4.5-3.7-4.5-8c-.1-3.5,1.2-6.4,3-7.5Zm-7.2,7.8c.1-1,.7-2.1,1.6-3.4-.2,1-.3,2.1-.3,3.2,0,2.1.3,3.9.9,5.4l-.3-.3c-1.3-1.5-2.1-3.5-1.9-4.9Zm-21.1-16.2c1.2-.3,2.6-.6,4.1-.8,6.3.1,11.5,6.3,11.5,14s-5.2,14-11.7,14-11.7-6.3-11.7-14c.1-6.1,3.2-11.2,7.8-13.2Zm-15.2,18c-.2-.3-.6-.5-1-.5v-5.7c.7-.1,1.2-.6,1.2-1.4.1-.9,2.1-4.5,7.6-7.6-1.9,2.8-3,6.4-3,10.4,0,4.8,1.8,9.3,4.8,12.3l-5,.2,1.4-2.6c.2-.3.2-.8.1-1.1-.1-.3-.3-.7-.7-.8-2.6-1.1-4.6-2.5-5.4-3.2Zm-21.5-8.2c.5-.1.9-.2,1.4-.3,2.4.1,4.4,3.6,4.4,7.8s-2,7.8-4.5,7.8-4.5-3.6-4.5-7.8c.1-3.4,1.4-6.4,3.2-7.5Zm-7.5,12.6c-1.4-1.5-2.1-3.5-1.9-4.8.2-1.5,2.1-3.4,4.3-5-.5,1.5-.8,3-.8,4.8,0,2.9.8,5.7,2.1,7.5-1.8-.6-3-1.7-3.7-2.5Zm89.9,10.5c-.6.9-1.2,1.8-1.5,2.6-9,.1-18.3.2-27.3.3-8.6.1-16.7.2-23.6.2-15.6.1-36.9,1.6-56.3,3.6-.1-1.2-.2-2.3-.3-3l109-3.7Zm-127.1-25.2l16.5-.5v10.8l-16.5.5v-10.8Zm-3.8,14.9l.7-1.4,22.8-.6.7,1v5.9l-24.1.8v-5.7h-.1Zm-1.4,22.8c6.2-.9,13.3-1.8,20.8-2.7v1c-3.5.5-7,.9-10.3,1.4,0,0-4.8.2-10.8.9.1-.3.2-.3.3-.6Zm-1.7,3.8c1.5-.2,2.8-.2,4.1-.3,5.8-.1,12-.1,17.5.2,0,.6.2,1.2.5,1.8,0,.1.1.2.1.3-7.5-.5-16.2-.5-23.4-.3.5-.6,1-1.1,1.2-1.7Zm-54.8,44.3c6.9-.3,13.2-11.9,19.9-24,4.5-8.1,9.2-16.7,12.9-18.8,2.7-1.5,10.2-3.3,20.6-4.8-.1.2-.1.3-.2.6-8,1.1-17.1,2.9-20.2,6.2-6.2,6.3-19.9,33.6-25.1,38.4-1.2,1.2-2.6,4.2-2.6,4.2l-3.9-.9s-11.4.3-13.3.5l11.9,3.7,13.1-5s13.8-32.3,21.6-39.9c2.8-2.5,9.9-3.7,16.7-4.3-.1.1-.2.2-.3.2-.6.5-1,.9-1.4,1.4-5.7.2-9.8.6-10.8.8-8.3,3-21.9,36.5-24.3,42.4l-15.1,6.2c-8.8-3.7-16.2-5.4-22.6-6.2,8.7-.5,18.5-.7,23.1-.7Zm-13.7,50.7c.2,0,.8,0,2,.5.8.3,1.8.9,3,1.7,0,1.2,0,4.1.2,7.8-4.9-7.1-5.2-9.4-5.2-10Zm3-2.1c-.9-.3-3.9-1.4-5.2.5-1,1.2-.9,3.4,2.3,8.7-8.7-6.6-18.4-14.6-19.9-17.6-2.4-4.8-6.8-15.9-7.5-17.7,0-8.1.3-17.2.9-19.7,1.2,0,2.5,0,3.7.1,9.2.1,19.5.2,34.1,6.4-1.5,4.8-6.6,23.4-4.3,41.7-1.7-1.2-3.1-2.1-4.1-2.4Zm18.4,43.2c-4.1,0-7.3-9.9-7.3-22.2,0-2.8.2-5.4.5-7.9,1,1.2,2,2.3,3,3.4-1.1,3-.1,9.3.8,12.6.8,3,2.7,8.9,6.2,12.1-1,1.1-2.1,2-3.2,2Zm4.6-4.8c-1.2-1.2-2.1-2.8-3.2-5.1-2.3-5.3-3-11.3-3-14.2,2.4,3,4.4,6.1,5.5,8.8.3.9.8,1.7,1,2.5.5,1,.8,1.9,1.2,2.7-.3,1.9-.9,3.7-1.5,5.3Zm1.2-13.5c-2.4-4.6-6.6-9.9-11-14.5-.3-.3-.6-.6-1-1-1.7-1.7-3.4-3.3-5-4.6-3.2-18.3,2-37.8,3.7-43.2,8,3.4,23.4,8.7,40.7,14.4-1.8,7.5-3.3,35.8-.2,63.3-2.1-1.2-3.4-2.3-4.1-2.6-6.5-4.3-19.8-10.6-23.1-11.8Zm24.3,27.2c0-.2,0-.5-.1-.7.1.1.2.1.3.2,0,0,0,.3-.2.5Zm-10.9-10.5c-7.8-3.2-8.5-4.8-11.7-12.3-.1-.2-.2-.3-.2-.6,5.1,2.1,14.8,7,20.2,10.4.8.6,3,1.8,6,3.8.3,2.7.8,5.5,1.2,8.1-7.9-5.1-13.6-8.7-15.5-9.4Zm16.7-64.7c20.4,6.6,43,13.5,60.2,18.2-2.3,9-10.1,44.2-5.4,81.5-20-13-42.8-27.8-54.4-35.3-3.7-27.9-2-57.5-.4-64.4Zm2,76.4c-.6-2.7-.9-5.5-1.4-8.4,12.4,8,35.1,22.7,54.5,35.3.6,3.5,1.1,7.1,1.9,10.8-19.1-13.5-40.2-27.9-55-37.7Zm58.4,39.9c-.9-3.7-1.6-7.3-2.1-11.1,15.9,10.3,28.9,18.8,31.3,20.2,1.8,4.5,5.9,12.1,8.7,17.1-7.3-4.9-21.7-14.9-37.9-26.2Zm45.9-1.5c-3.9,9.4-5.7,18.3-5.3,27-3.7-6.9-9-16.7-9.7-19.7-.7-2.8-1.5-15.8,6.2-22.6,4.8-4.2,11.7-5.4,21-3.7-6.1,4.2-10.2,13.9-12.2,19Zm48.5,64.9c-16.1,0-29-18.9-29-41.9,0-14.4,5.1-27.2,12.8-34.8,2.3,1.1,4.4,2.5,6.6,3.9l9,8c-.3,0-.8-.1-1.2-.1-8.9,0-16.2,11.3-16.2,25.2s7.2,25.2,16.2,25.2c2.3,0,4.5-.8,6.4-2.1-7.1-1.9-12.5-11.5-12.5-23.1,0-10.4,4.3-19.1,10.4-22.2l8.8,7.8c6.9,8.1,12.4,16.6,16.6,24.2-3.6,17.2-14.7,29.9-27.9,29.9Zm28.6-34.3c-1.4-2.3-2.7-4.6-4.3-7-.6-.9-1.2-1.9-1.9-2.9-9.7-14.2-25.4-31.7-46.9-39.2-15.8-5.5-27.5-5.1-34.7,1.2-7.9,7-7.9,19.1-7.3,24-5.3-3.5-17.1-11.1-30.6-19.9-5.2-37.4,2.8-73.6,5.1-82.7,4.3,1.2,8.1,2.1,11.4,3,29.7,7.5,157.3,48.5,185.1,80.8h-.1c.1.1.2.2.3.3,2.6,3,4.2,6,4.8,8.8-3.5,7.6-3.4,26-3.3,40.8v6.7c0,.6.1,1,.2,1.5-1.4-.1-2.8-.2-4.5-.3-6.3-.3-11.3,2.6-13.7,8.1-1.2,3-1.2,9.9-.5,16.5l-47.7-14.4c-.8-3.3-4.7-13.7-11.4-25.3Zm60.4,51.1c-11.7-2.7-32.7-7.7-45.9-21.7l45.2,13.5c.5,3.2,1.1,6.1,1.8,8.4-.3-.1-.8-.1-1.1-.2Zm2-26.7c1.9-4.4,5.9-6.8,11-6.4,5.7.3,9.8.8,9.8.8.6,0,1.2.1,1.7.1,3.5,0,8.3-.9,13.5-2.1,7.8-1.7,27.2-11,36.6-15.5l1.9-.9c3.5-1.7,5-4.8,6.2-8.3l17.3-6.4c0,1.7,0,4.8-.3,11.4-.3,5.2-1.6,10.2-3.3,14.4-6.2,2.5-62.6,25.1-70.9,26.9-8.4,1.7-24-6.4-24-6.6l-.1.2c-.3-3.3,0-6.1.6-7.6Zm60.8,23.7c-2.1,1-24.5,12.2-38,13.9-14.1,1.7-18.3-4.4-20.2-9.3-1.6-3.7-2.8-11.2-3.3-17.7,3.5,1.8,13.7,6.4,21.6,6.4,1.1,0,2.1-.1,3-.3,8-1.6,56-20.8,68.9-26-2.8,6.1-6.2,10.5-7.9,11.7-3.4,2.7-22.2,19.5-24.1,21.3Zm40.8-13.2c-3.9,5.2-13.5,17-17.1,18.8-2.8,1.5-13.3-2.1-20.4-4.8,5-4.4,19.5-17.5,22.4-19.7,3.5-2.6,12.8-16.1,13.8-32,.7-11.2.3-12.8.1-14-.1-.3-.1-.6-.1-1.2,0-1.7,4.8-4.6,6.3-4.6,1.2,0,7.1.2,7.5,5.1.3,5.4-.2,31.4-.9,34.7-.5,2.1-7.4,12.1-11.6,17.7Zm82.7-47c-3.3,2.1-58.7,35.7-77.2,44.2,3.5-4.8,8.3-12,8.7-14.4.3-1.4.6-6.2.8-12l91.3-43-23.6,25.2Zm26.8-.2c-1.9.3-13.5.2-22.8,0l37.9-40.4c.2-.2.3-.6.3-.9v-18.2c0-.3,0-.8.3-.9,1.2-.6,4.8.9,7.8,2.7.1.1.2.2.5.3v20.9l.3,4.2c-8.6,11.7-22.4,30.4-24.3,32.3Zm24.2-60.8c-.2-.1-.6-.3-.9-.5,2.3-1.9,6.9-6,8.6-10.2.3-.9.8-1.9,1.2-3-.2,1-.3,1.9-.6,2.7-.7,3.4-5.7,8.6-8.3,11Zm9.1,19c0,.5,0,.9-.1,1.2-.8.6-3.4,1.5-6.4,2.1v-16.7c2.4,1.9,5.2,4.2,6.3,4.8.4.8.4,3.7.2,8.6Z"/><path class="cls-42" d="m119.17,54.8q-.1.1-.2.2v.1q.2-.2.2-.3Z"/></g><ellipse class="cls-47" cx="204.57" cy="30.7" rx="5.7" ry="7.5"/><path class="cls-19" d="m47.77,168.5l.2-4.4-2.8-1.2c-.1.1,2.6,5.5,2.6,5.6Z"/><path class="cls-61" d="m193.97,257.7s7.2,15.3,7,14.2c-2.1-13.2,5.7-33.6,14.4-38.6-23.6.6-21.4,24.4-21.4,24.4Z"/><path class="cls-43" d="m263.47,265c-.9-.7-1.9-1-3-1-4.2,0-7.5,5.2-7.5,11.7s3.4,11.7,7.5,11.7c1,0,2.1-.3,3-1-3.3-.9-5.7-5.3-5.7-10.6s2.4-9.9,5.7-10.8Z"/><path class="cls-3" d="m113.97,170.3c.7-2.4-.1-3.9-2.4-4.6l-3.4-1-4.2,14.7,2.3.7,1.6-5.5,1.1.3c2.3.7,3.9-.3,4.5-2.6l.5-2Zm-2.3-.8l-.7,2.2c-.3,1-.8,1.2-1.5,1l-1.1-.3,1.4-5,1.1.3c.8.3,1,.8.8,1.8Z"/><path class="cls-12" d="m115.17,182.9c2.3.7,3.9-.3,4.5-2.7l2.1-7.6c.7-2.4-.2-4.1-2.5-4.6-2.3-.7-3.9.3-4.5,2.7l-2.1,7.6c-.5,2.2.3,3.9,2.5,4.6Zm-.1-4l2.3-7.9c.3-1,.9-1.4,1.6-1.1.7.2,1.1.8.8,1.8l-2.3,7.9c-.3,1-.9,1.4-1.6,1.1-.8-.2-1.1-.7-.8-1.8Z"/><polygon class="cls-54" points="126.97 183.6 123.07 182.7 126.77 170.1 124.47 169.4 120.27 184.1 126.37 185.8 126.97 183.6"/><polygon class="cls-59" points="127.37 186.2 131.47 171.5 133.87 172.1 129.67 186.7 127.37 186.2"/><path class="cls-63" d="m134.47,188.3c2.3.7,3.9-.3,4.5-2.7l.6-1.9-2.2-.7-.6,2.1c-.3,1-.9,1.2-1.6,1.1-.7-.2-1.1-.7-.8-1.8l2.3-7.9c.3-1,.9-1.4,1.6-1.1s1.1.8.8,1.8l-.5,1.6,2.1.6.5-1.5c.7-2.4-.1-4.1-2.4-4.6-2.3-.7-3.9.3-4.5,2.7l-2.1,7.6c-.7,2.4.1,4.1,2.3,4.7Z"/><polygon class="cls-55" points="149.07 178.7 149.87 176.7 143.47 174.9 139.27 189.5 145.67 191.3 146.17 189.2 142.27 188.1 143.47 183.8 146.67 184.7 147.17 182.7 144.07 181.7 145.17 177.6 149.07 178.7"/></g><g><path class="cls-4" d="m193.25,88.2c1.7-.1,3.3,0,4.5.3s2.3,1,3,1.8c.8.9,1.2,1.9,1.5,3.3s.1,3-.2,4.6c-.3,1.8-.8,3.4-1.1,4.8-.3,1.5-.8,3-1.1,4.4-.5,1.7-.9,3-1.4,4.2-.6,1-1.1,1.9-1.9,2.6-.7.7-1.6,1.1-2.6,1.5-1,.3-2.1.6-3.5.8-4.4.7-8.9,1.5-13.3,2.3,2.1-10.1,4.4-20,6.6-29.8,3.1-.3,6.2-.6,9.5-.8Zm.5,8.1c.1-.5,0-.9-.2-1.1-.2-.3-.6-.5-1-.3-.6,0-1,.1-1.6.1-1.2,5.4-2.5,11-3.7,16.5.6-.1,1-.1,1.6-.2.5-.1.9-.3,1.2-.7.5-.3.7-.8.8-1.4.9-4.5,1.9-8.7,2.9-12.9Z"/><path class="cls-4" d="m228.55,85.3c-.6,2.1-1.1,4.3-1.7,6.4-4.3.3-8.5.8-12.8,1.1-.3,1.1-.7,2.3-.9,3.5,3.4-.3,6.9-.7,10.3-1-.6,2.1-1,4.3-1.6,6.4-3.4.3-6.8.8-10.2,1.2-.3,1.1-.6,2.4-.9,3.5,4.3-.6,8.5-1.1,12.8-1.6-.6,2.4-1.1,4.6-1.7,7-7.1,1-14.1,2.1-21.3,3.2,2.3-9.5,4.5-18.9,6.8-28,7-.7,14.1-1.2,21.2-1.7Z"/><path class="cls-4" d="m243.75,84.2c1.1-.1,2.1,0,3,.2s1.6.7,2.1,1.1c.6.6,1,1.1,1.1,1.9.2.8.2,1.6-.1,2.4-.5,1.6-.8,3.3-1.2,5-.3,1.4-1.1,2.7-2.4,4.1-.7.7-1.4,1.4-2.1,1.8-.8.5-1.6.8-2.4,1.1-.9.3-1.7.6-2.7.7-.9.1-1.9.3-3,.5-.6.1-1.1.1-1.7.2-.7,2.4-1.2,4.8-1.9,7.2-3,.3-5.7.8-8.7,1.1,2.3-8.9,4.4-17.7,6.6-26.4,4.7-.3,9-.6,13.4-.9Zm-3.1,7.4c.1-.5.1-.8-.2-1-.2-.2-.6-.3-1.1-.3-.6,0-1,.1-1.6.1-.6,2.1-1.1,4.1-1.7,6.2.6,0,1-.1,1.6-.1.5,0,.9-.2,1.4-.6.5-.3.7-.7.8-1.1.4-1.2.6-2.1.8-3.2Z"/><path class="cls-4" d="m263.85,82.8c1.7-.1,3.3,0,4.5.3s2.3.9,3,1.6c.8.7,1.2,1.7,1.5,2.8.2,1.1.1,2.5-.2,3.9s-.8,2.8-1.1,4.1c-.3,1.2-.8,2.5-1.1,3.7-.5,1.5-.9,2.6-1.5,3.5s-1.1,1.6-1.9,2.1c-.8.6-1.6.9-2.6,1.1s-2.1.5-3.5.6c-4.4.6-8.9,1-13.3,1.6,2.1-8.5,4.4-16.7,6.6-24.9,3.1.1,6.4-.1,9.6-.4Zm.4,6.9c.1-.3,0-.7-.2-1-.2-.2-.6-.3-1-.3-.6,0-1,.1-1.6.1-1.2,4.5-2.5,9.2-3.7,13.8.6,0,1-.1,1.6-.1.5,0,.9-.2,1.2-.6.5-.3.7-.7.8-1.1,1-3.7,2-7.3,2.9-10.8Z"/><path class="cls-4" d="m299.15,80.8c-.6,1.8-1.1,3.7-1.7,5.5-4.3.3-8.5.6-12.8.9-.3,1-.7,1.9-.9,3,3.4-.2,6.9-.6,10.3-.8-.6,1.8-1,3.6-1.6,5.4-3.4.3-6.8.6-10.2.9-.3,1-.6,1.9-.9,3,4.3-.5,8.5-.8,12.8-1.1-.6,1.9-1.1,3.9-1.7,6-7.1.7-14.1,1.5-21.3,2.3,2.3-8,4.5-15.9,6.8-23.7,7.1-.6,14.1-1.1,21.2-1.4Z"/><path class="cls-4" d="m314.45,79.9c1.1-.1,2.1,0,3,.2s1.6.6,2.1,1c.6.4,1,1,1.1,1.7.2.7.2,1.4-.1,2.1-.5,1.5-.8,2.8-1.2,4.3-.3,1.1-1.1,2.3-2.4,3.5-.7.6-1.4,1.1-2.1,1.5-.8.3-1.6.7-2.4.9-.9.2-1.7.5-2.7.6-.9.1-1.9.2-3,.3-.6,0-1.1.1-1.7.1-.7,2.1-1.2,4.1-1.9,6.2-3,.2-5.7.6-8.7.9,2.3-7.6,4.4-15.1,6.6-22.6,4.5-.2,8.9-.5,13.4-.7Zm-3.2,6.4c.1-.3.1-.7-.2-.9-.2-.2-.7-.3-1.1-.3-.6,0-1,.1-1.6.1-.6,1.8-1.1,3.5-1.7,5.3.6,0,1-.1,1.6-.1.5,0,.9-.2,1.4-.5s.7-.6.8-1c.3-.9.5-1.7.8-2.6Z"/></g></svg>