<?xml version="1.0" encoding="UTF-8"?>
<svg id="Layer_1" xmlns="http://www.w3.org/2000/svg" xmlns:xlink="http://www.w3.org/1999/xlink" viewBox="0 0 1920 945.71">
    <defs>
        <style>
            .cls-1{fill:#ffb0b0;font-family:Montserrat-ExtraBoldItalic, Montserrat;font-size:32.07px;font-style:italic;font-weight:700;}.cls-2{letter-spacing:-.01em;}.cls-3{fill:url(#Dégradé_sans_nom);}.cls-4{fill:#fff3f3;}
        </style>
        <linearGradient id="Dégradé_sans_nom" x1="-1.19" y1="-70.47" x2="1894.48" y2="1001.08" gradientUnits="userSpaceOnUse"><stop offset="0" stop-color="#a001c0"/>
            <stop offset=".2" stop-color="#4041fe"/>
            <stop offset=".4" stop-color="#007a41"/>
            <stop offset=".6" stop-color="#ff0"/>
            <stop offset=".8" stop-color="#fb7f05"/>
            <stop offset="1" stop-color="#f00001"/>
        </linearGradient>
    </defs>
    <text class="cls-1" transform="translate(921.17 705.25)"><tspan x="0" y="0">NOM</tspan></text><text class="cls-1" transform="translate(886.87 789.03)"><tspan class="cls-2" x="0" y="0">P</tspan><tspan x="23.32" y="0">RÉNOM</tspan></text><g><path class="cls-4" d="m1920,5v842.17c-19.58,54.54-71.75,93.54-133.03,93.54H0V98.54C19.58,44.01,71.75,5,133.03,5h1786.97Z"/><path class="cls-3" d="m134.24,0C74.71,0,23.3,35.13,0,85.59v31.27C13.61,55.8,68.63,10,134.24,10h1785.76V0H134.24Zm1651.51,935.71H0v10h1785.75c59.54,0,110.95-35.13,134.25-85.59v-31.26c-13.61,61.05-68.63,106.85-134.25,106.85Z"/></g></svg>
